<?xml version="1.0" encoding="utf-8"?>
<svg version="1.1" class="svg" xmlns="http://www.w3.org/2000/svg" xmlns:xlink="http://www.w3.org/1999/xlink" x="0px" y="0px"
	 viewBox="0 0 300 300" style="enable-background:new 0 0 300 300;" xml:space="preserve">
<g>
	<path d="M300,150c0,83.1-66.9,150-150,150S0,233.1,0,150S66.9,0,150,0S300,66.9,300,150z M112.5,78.1c-0.3-12.5-9.7-21.8-25-21.8
		c-14.9,0-24.9,9.4-24.9,21.8c0,12.2,9.7,22,24.6,22h0.3C102.8,100,112.5,90.2,112.5,78.1z M106.2,118.8H68.7V225h37.5V118.8z
		 M243.8,168.8c0-34.4-17-56.2-43.8-56.2c-15.2,0-26.4,9.1-31.2,22.6l-1.3-16.3h-37.2c0.3,4.1,1,24.9,1,24.9V225h37.5v-56.2
		c0-15.2,6.9-25,18.5-25c11.4,0,19,6,19,25V225h37.5V168.8z"/>
</g>
</svg>
