<?xml version="1.0" standalone="no"?>
<!DOCTYPE svg PUBLIC "-//W3C//DTD SVG 1.1//EN" "http://www.w3.org/Graphics/SVG/1.1/DTD/svg11.dtd" >
<svg xmlns="http://www.w3.org/2000/svg">
<metadata>
Created by FontPrep 20130207 at Tue Sep 22 18:33:44 2015
 By Hannah Lucy Woodward
</metadata>
<defs>
<font id="d05b123431d6c537811e14ab8ea753d0" horiz-adv-x='1024' >
  <font-face 
    font-family="Bakersfield-Bold"
    font-weight="700"
    font-stretch="normal"
    units-per-em="2048"
    panose-1="0 0 0 0 0 0 0 0 0 0"
    ascent="1536"
    descent="-512"
    x-height="1077"
    cap-height="1499"
    bbox="-225 -465 2224 1966"
    underline-thickness="102"
    underline-position="-102"
    unicode-range="U+0020-FB04"
  />
<missing-glyph horiz-adv-x="614" 
 />
    <glyph glyph-name="ff" unicode="ff" horiz-adv-x="1536" 
d="M758 0v936h-453v-936h-141v936h-164v143h164v197q0 177 167.5 242t385.5 65v-143q-254 0 -333 -51.5t-79 -108.5v-201h453v197q0 177 167.5 242t385.5 65v-143q-254 0 -333 -51.5t-79 -108.5v-201h412v-143h-412v-936h-141z" />
    <glyph glyph-name="fi" unicode="fi" horiz-adv-x="1085" 
d="M717 0v936h-412v-936h-141v936h-164v143h164v197q0 177 167.5 242t385.5 65v-143q-254 0 -333 -51.5t-79 -108.5v-201h555v-1079h-143z" />
    <glyph glyph-name="fl" unicode="fl" horiz-adv-x="1189" 
d="M821 0v1442h-168q-209 0 -278.5 -55.5t-69.5 -106.5v-201h412v-141h-412v-938h-141v938h-164v141h164v197q0 168 155 237.5t334 69.5h312v-1583h-144z" />
    <glyph glyph-name="ffi" unicode="ffi" horiz-adv-x="1679" 
d="M1311 0v936h-412v-936h-141v936h-453v-936h-141v936h-164v143h164v197q0 177 167.5 242t385.5 65v-143q-254 0 -333 -51.5t-79 -108.5v-201h453v197q0 177 167.5 242t385.5 65v-143q-254 0 -333 -51.5t-79 -108.5v-201h555v-1079h-143z" />
    <glyph glyph-name="ffl" unicode="ffl" horiz-adv-x="1679" 
d="M899 1280v-201h412v361q-254 0 -333 -51.5t-79 -108.5zM1311 -2v938h-412v-936h-141v936h-453v-936h-141v936h-164v143h164v197q0 177 167.5 242t385.5 65v-143q-254 0 -333 -51.5t-79 -108.5v-201h453v197q0 177 167.5 242t385.5 65h143v-1585h-143z" />
    <glyph glyph-name="fj" unicode="fj" horiz-adv-x="1085" 
d="M424 -463v141h160q91 3 112 110t21 247v901h-412v-936h-141v936h-164v143h164v197q0 177 167.5 242t385.5 65v-143q-254 0 -333 -51.5t-79 -108.5v-201h553v-1032q0 -205 -29.5 -300t-85 -152.5t-159.5 -57.5h-160z" />
    <glyph glyph-name="ft" unicode="ft" horiz-adv-x="1245" 
d="M717 250v686h-412v-936h-141v936h-164v143h164v197q0 177 167.5 242t385.5 65v-143q-254 0 -333 -51.5t-79 -108.5v-201h412v191h141v-191h162v-143h-162v-688q3 -68 43.5 -91.5t118.5 -23.5v-137q-152 4 -227.5 61.5t-75.5 192.5z" />
    <glyph glyph-name="tt" unicode="tt" horiz-adv-x="1110" 
d="M0 936v143h88v191h141v-191h353v191h141v-191h162v-143h-162v-688q3 -68 43.5 -91.5t118.5 -23.5v-137q-153 4 -228 61.5t-75 192.5v686h-353v-688q3 -68 43.5 -91.5t118.5 -23.5v-137q-152 4 -227.5 61.5t-75.5 192.5v686h-88z" />
    <glyph glyph-name="ffj" unicode="ffj" horiz-adv-x="1679" 
d="M1018 -463v141h160q91 3 112 110t21 247v901h-412v-936h-141v936h-453v-936h-141v936h-164v143h164v197q0 177 167.5 242t385.5 65v-143q-254 0 -333 -51.5t-79 -108.5v-201h453v197q0 177 167.5 242t385.5 65v-143q-254 0 -333 -51.5t-79 -108.5v-201h553v-1032
q0 -205 -29.5 -300t-85 -152.5t-159.5 -57.5h-160z" />
    <glyph glyph-name="fft" unicode="fft" horiz-adv-x="1839" 
d="M1311 250v686h-412v-936h-141v936h-453v-936h-141v936h-164v143h164v197q0 177 167.5 242t385.5 65v-143q-254 0 -333 -51.5t-79 -108.5v-201h453v197q0 177 167.5 242t385.5 65v-143q-254 0 -333 -51.5t-79 -108.5v-201h412v191h141v-191h162v-143h-162v-688
q3 -68 43.5 -91.5t118.5 -23.5v-137q-152 4 -227.5 61.5t-75.5 192.5z" />
    <glyph glyph-name="rf" unicode="rf" horiz-adv-x="1302" 
d="M524 936q-268 0 -385 -258v-678h-139v1079h139v-172q59 70 153.5 121t231.5 51v197q0 177 167.5 242t385.5 65v-143q-253 0 -332 -51.5t-79 -108.5v-201h411v-143h-411v-936h-142v936z" />
    <glyph glyph-name=".notdef" horiz-adv-x="614" 
 />
    <glyph glyph-name=".null" horiz-adv-x="0" 
 />
    <glyph glyph-name="nonmarkingreturn" horiz-adv-x="614" 
 />
    <glyph glyph-name="Space" unicode=" " horiz-adv-x="614" 
 />
    <glyph glyph-name="Space" unicode="&#xa0;" horiz-adv-x="614" 
 />
    <glyph glyph-name="exclam" unicode="!" horiz-adv-x="366" 
d="M0 0v279h141v-279h-141zM0 391v1110h141v-1110h-141z" />
    <glyph glyph-name="quotedbl" unicode="&#x22;" horiz-adv-x="581" 
d="M236 1454l120 -2l-26 -362h-127zM29 1454l121 -2l-27 -362h-123z" />
    <glyph glyph-name="numbersign" unicode="#" horiz-adv-x="1554" 
d="M535 590h260l26 227h-262zM0 446v144h393l27 227h-420v144h436l58 493l139 -2l-58 -491h263l57 493l141 -2l-57 -491h350v-144h-366l-27 -227h393v-144h-409l-52 -454l-141 8l51 446h-260l-51 -454l-141 8l51 446h-377z" />
    <glyph glyph-name="dollar" unicode="$" horiz-adv-x="1138" 
d="M768 418v13q0 68 -41 120q-66 72 -205 92l-57 -504l63 -6q104 0 164 55h-2q78 70 78 230zM141 1026q0 -106 58 -162q41 -44 123 -61q35 -8 67 -8h8l58 512l-80 10q-94 0 -154 -60q-80 -72 -80 -231zM0 1026q0 225 125 338q97 92 132 92h134l80 -8l12 102l142 -2l-15 -114
l234 -25l-2 -143l-246 26l-59 -510q181 -30 297 -139q77 -93 77 -215q0 -228 -127 -344q-80 -70 -154.5 -81t-90.5 -11h-27l-63 8l-13 -123l-141 8l14 129l-303 37l2 146l318 -39l55 495q-97 0 -170.5 36t-112.5 75h2q-100 94 -100 262z" />
    <glyph glyph-name="percent" unicode="%" horiz-adv-x="1560" 
d="M276 39l699 1438l127 -62l-701 -1442zM899.5 190.5q55.5 -65.5 130.5 -65.5t128.5 64.5t53.5 144.5t-53.5 145.5t-129.5 65.5q-75 0 -130 -66.5t-55 -144.5t55.5 -143.5zM1030.5 0q-65.5 0 -122 29.5t-97.5 78t-64.5 107.5t-23.5 118.5t23.5 119t64.5 107.5t97.5 78
t122 30t120.5 -30t96 -78t64.5 -107.5t23.5 -119t-23.5 -118.5t-64.5 -107.5t-96 -78t-120.5 -29.5zM309 1325q-41 0 -74.5 -19.5t-58 -50t-39 -69.5t-14.5 -76t14.5 -76t39 -69.5t58 -50t74.5 -19.5t75 19.5t58.5 50t39 69.5t14.5 76t-14.5 76t-39 69.5t-58.5 50t-75 19.5z
M91 880.5q-91 106.5 -91 231.5t89.5 230.5t218 105.5t219.5 -105t91 -231t-92.5 -232t-218 -106t-216.5 106.5z" />
    <glyph glyph-name="ampersand" unicode="&#x26;" horiz-adv-x="1372" 
d="M494 1315q-107 0 -156 -79t-14.5 -134t49.5 -76l67 -82q113 55 159 121t33 123t-57.5 92t-80.5 35zM141 394q0 -56 34 -120t106.5 -101.5t144.5 -37.5q218 0 350 150l-373 469q-106 -76 -156 -136.5t-78 -114t-28 -109.5zM1018 655q0 -236 -68 -362l197 -250l-129 -66
l-154 195q-102 -114 -276 -162q-72 -18 -142 -18q-129 0 -237.5 57t-158.5 152t-50 182q0 150 101.5 277.5t213.5 205.5l-55 74q-61 77 -73 127q-13 51 -13 86q0 104 64.5 186t169.5 109q33 8 67 8q104 0 186 -64.5t109 -168.5q34 -174 -60 -258t-139 -109l-45 -27
q81 -102 139 -172.5t97 -121t88 -111.5q29 109 29 231h139z" />
    <glyph glyph-name="quotesingle" unicode="'" horiz-adv-x="393" 
d="M0 1075l27 379l141 -2l-27 -377h-141z" />
    <glyph glyph-name="parenleft" unicode="(" horiz-adv-x="833" 
d="M608 -457q-137 0 -248.5 89t-191.5 234.5t-124 331t-44 378t39 373.5t114.5 322.5t189.5 226.5t265 85v-141q-119 0 -207 -75t-145 -196.5t-86 -277.5t-29 -317.5t29 -321.5t86 -286t145 -203.5t207 -77.5v-144z" />
    <glyph glyph-name="parenright" unicode=")" horiz-adv-x="833" 
d="M0 -457v144q119 0 207 77.5t145.5 203.5t86 286t28.5 321.5t-28.5 317.5t-86 277.5t-145.5 196.5t-207 75v141q150 0 264.5 -85t190 -226.5t114.5 -322.5t39 -373.5t-44 -378t-124 -331t-191.5 -234.5t-248.5 -89z" />
    <glyph glyph-name="asterisk" unicode="*" horiz-adv-x="786" 
d="M221 1444h121v-154l168 58l51 -113l-174 -57l127 -136l-88 -88l-145 162l-80 -88q-30 -30 -64 -72l-100 68q37 41 70.5 79t68.5 77l-76 24q-25 8 -50 15.5t-50 17.5l53 111l168 -60v156z" />
    <glyph glyph-name="plus" unicode="+" horiz-adv-x="1304" 
d="M467 0v469h-467v141h467v469h143v-469h469v-141h-469v-469h-143z" />
    <glyph glyph-name="comma" unicode="," horiz-adv-x="393" 
d="M0 -190l27 376h141l-27 -387z" />
    <glyph glyph-name="hyphen" unicode="-" horiz-adv-x="849" 
d="M0 508v141h625v-141h-625z" />
    <glyph glyph-name="period" unicode="." horiz-adv-x="366" 
d="M0 4v311h141v-311h-141z" />
    <glyph glyph-name="slash" unicode="/" horiz-adv-x="1079" 
d="M0 25l725 1445l129 -63l-729 -1446z" />
    <glyph glyph-name="zero" unicode="0" horiz-adv-x="1196" 
d="M484 1317q-75 0 -138 -44t-108 -123t-71 -186.5t-26 -236.5t26 -236.5t71 -185.5t108.5 -122t137.5 -44t137 44t109 122t71.5 185.5t25.5 236.5t-25.5 236.5t-71.5 186.5t-108.5 123t-137.5 44zM484 -4q-105 0 -194 55t-153.5 152.5t-100.5 231.5t-36 292t36 292
t100.5 231.5t153.5 151.5t194 54t194.5 -54t154 -151.5t101.5 -231.5t37 -292t-37 -292t-101.5 -231.5t-154 -152.5t-194.5 -55z" />
    <glyph glyph-name="one" unicode="1" horiz-adv-x="712" 
d="M346 0v1210q-144 -110 -346 -110v141q169 0 254.5 71.5t107.5 105.5l23 34l102 -4v-1448h-141z" />
    <glyph glyph-name="two" unicode="2" 
d="M12 1053q24 179 144.5 289t303.5 110q182 0 307.5 -135t125.5 -342q0 -110 -74 -230t-166 -213l-395 -389h635v-143h-850l-43 88l47 47q25 25 139 137t141 139l224 224q129 129 176 246q47 107 13.5 197.5t-95 160.5t-185.5 70t-205 -78t-101 -199l-2 -61l-142 2z" />
    <glyph glyph-name="three" unicode="3" horiz-adv-x="1077" 
d="M354 -8q-177 0 -354 141l100 105q129 -104 254 -105h47q136 0 223 78.5t87 195.5t-83 196t-214 83h-199v141h195q113 4 186.5 71.5t73.5 170.5t-75.5 172.5t-195.5 69.5h-43q-127 0 -250 -123l-100 100q164 164 350 164h43q179 0 295.5 -108.5t116.5 -272.5
q0 -98 -42 -178t-116 -131q92 -53 145.5 -144.5t53.5 -194.5q0 -194 -128 -312.5t-323 -118.5h-47z" />
    <glyph glyph-name="four" unicode="4" horiz-adv-x="1277" 
d="M694 514v651l-473 -651h473zM694 0v371h-653l-41 82l739 1015l97 -47v-907h217v-143h-217v-371h-142z" />
    <glyph glyph-name="five" unicode="5" 
d="M14 0v143h332q106 0 188 5.5t132 33.5q45 31 65 101t21 194q0 70 -43 117h2q-42 38 -99 49.5t-80 11.5h-532l154 795h741v-141h-627l-96 -512h338q92 0 174 -33t123 -72q88 -84 88 -230q0 -290 -156 -401q-70 -41 -166 -51t-213 -10h-346z" />
    <glyph glyph-name="six" unicode="6" horiz-adv-x="1167" 
d="M143 509q0 -87 26 -150.5t71 -111.5t104 -76t161.5 -28t198 84t95.5 205t-95.5 205t-232.5 84h-287q-41 -125 -41 -212zM136.5 950.5q136.5 216.5 261 335.5t170.5 155t46 38l103 -101q-2 -2 -51.5 -41t-184 -168t-231.5 -305h221q195 0 333 -127t138 -305t-138.5 -305
t-332.5 -127q-193 0 -332 145t-139 367t136.5 438.5z" />
    <glyph glyph-name="seven" unicode="7" horiz-adv-x="1181" 
d="M0 1309v141h956l-565 -1468l-129 57l488 1270h-750z" />
    <glyph glyph-name="eight" unicode="8" horiz-adv-x="1126" 
d="M432 1311q-111 0 -181.5 -67.5t-70.5 -172t66.5 -172.5t173.5 -72h61q106 4 174 72t68 172t-70.5 172t-181.5 68h-39zM428 686q-126 0 -206.5 -78t-80.5 -198t80.5 -198.5t206.5 -78.5h45q126 0 206.5 78.5t80.5 197.5q0 120 -77 196.5t-198 80.5h-57zM428 -8
q-185 0 -306.5 117.5t-121.5 300.5q0 117 50 208t136 144q-70 51 -109.5 131t-39.5 170q0 171 111 280t284 109h39q171 0 282 -109t111 -272q0 -98 -40 -178t-111 -131q88 -53 138 -144.5t50 -194.5q0 -196 -121.5 -313.5t-306.5 -117.5h-45z" />
    <glyph glyph-name="nine" unicode="9" horiz-adv-x="1157" 
d="M788 936q0 94 -23.5 158.5t-66.5 112.5t-101 76t-126 28t-127 -22.5t-104 -62.5t-71 -93.5t-26 -143.5t97 -174t231 -84h277q40 111 40 205zM471 588q-195 0 -333 127t-138 305t138.5 305t333.5 127q194 0 327 -146t133 -369t-135 -440t-257 -333.5t-167 -153.5t-47 -37
l-101 101q0 2 49.5 41t177.5 161.5t232 311.5h-213z" />
    <glyph glyph-name="colon" unicode=":" horiz-adv-x="366" 
d="M0 29v319h141v-319h-141zM0 758v321h141v-321h-141z" />
    <glyph glyph-name="semicolon" unicode=";" horiz-adv-x="540" 
d="M86 758v321h143v-321h-143zM0 20l190 324l125 -68l-190 -323z" />
    <glyph glyph-name="less" unicode="&#x3c;" horiz-adv-x="1011" 
d="M188 537q591 -430 598 -435l-65 -122l-721 522v71l721 521l65 -125z" />
    <glyph glyph-name="equal" unicode="=" horiz-adv-x="1167" 
d="M0 702v140h942v-140h-942zM0 299v141h942v-141h-942z" />
    <glyph glyph-name="greater" unicode="&#x3e;" horiz-adv-x="1011" 
d="M2 131l598 434l-600 432l66 125l720 -518v-74l-712 -516z" />
    <glyph glyph-name="question" unicode="?" horiz-adv-x="968" 
d="M207 371q0 172 53 283q53 112 175 215t150 153q28 51 19.5 104.5t-40.5 94.5t-81 65.5t-100 24.5q-100 0 -170 -76t-70 -211l-143 2q0 199 109.5 312.5t267.5 113.5t262 -101.5t104 -250.5q0 -88 -42 -153.5t-99 -122t-118.5 -111t-98.5 -119.5q-35 -74 -35 -223h-143z
M207 0v217h143v-217h-143z" />
    <glyph glyph-name="at" unicode="@" horiz-adv-x="1597" 
d="M737 954q-109 0 -186.5 -69.5t-89.5 -179.5l-4 -35q-4 -47 9 -94.5t36 -75.5q64 -64 157 -64q158 0 244 129l29 232q-27 74 -78 115.5t-117 41.5zM1034 451q128 -41 166 79q2 8 16.5 63.5t14.5 133.5q0 243 -159.5 415.5t-385.5 172.5t-385.5 -172.5t-159.5 -415.5
t117 -369.5t216 -172.5t194 -46t223 39l2 -147q-123 -33 -235 -33t-237.5 57.5t-218.5 156.5t-147.5 231t-54.5 284t54.5 285t147.5 231t218 155.5t266 57.5t266 -57.5t218.5 -155.5t147.5 -231t54 -285q0 -81 -16 -154q-16 -74 -23 -88q-39 -125 -143 -168l2 2
q-49 -18 -112 -18t-154 39l26 -8l-73 30v9q-88 -76 -220 -76q-167 0 -264 110.5t-80 280.5q4 20 8 70t40 118t122.5 146t251.5 78q134 0 217 -117l4 29h146z" />
    <glyph glyph-name="A" unicode="A" horiz-adv-x="1515" 
d="M465 784h369l-181 455zM403 637q-264 -640 -270 -655l-133 57l602 1460h103l585 -1460l-133 -64l-264 662h-490z" />
    <glyph glyph-name="B" unicode="B" horiz-adv-x="1105" 
d="M145 1354v-561h375q88 66 123 383q0 97 -90.5 134t-159.5 42l-28 2h-220zM145 147h375q87 0 150 58h-2q68 68 68 191t-71.5 178.5t-158.5 72.5h-361v-500zM881 399q0 -193 -111 -299q-57 -57 -130.5 -78.5t-119.5 -21.5h-520v1499h365q114 0 214.5 -44t143.5 -93v2
q78 -84 65 -201q-27 -294 -131 -428q224 -87 224 -336z" />
    <glyph glyph-name="C" unicode="C" horiz-adv-x="1150" 
d="M557 0q-105 0 -200 47t-150 103q-207 201 -207 603t207 599q95 95 190 120t128 26l34 1h367v-145h-367l-23 -1q-123 -5 -229 -106q-162 -154 -162 -495q0 -342 162 -498q100 -95 229 -106l23 -1h367v-147h-369z" />
    <glyph glyph-name="D" unicode="D" horiz-adv-x="1323" 
d="M145 1354v-1207h394l23 1q56 2 222.5 82.5t165.5 521.5q0 344 -159 495q-74 71 -139.5 88t-89.5 18l-23 1h-394zM0 2v1497h539l33 -1q85 -2 305.5 -110t220.5 -636q0 -401 -205 -600q-91 -91 -193.5 -120.5t-158.5 -29.5h-541z" />
    <glyph glyph-name="E" unicode="E" horiz-adv-x="1146" 
d="M0 2v1497h768v-145h-623v-570h557v-147h-557v-490h777v-145h-922z" />
    <glyph glyph-name="F" unicode="F" horiz-adv-x="1021" 
d="M0 0v1501h797v-147h-652v-549h545v-150h-545v-655h-145z" />
    <glyph glyph-name="G" unicode="G" horiz-adv-x="1503" 
d="M657 143q305 0 457 191v309h-332v145h480l-2 -499q-212 -291 -603 -291q-287 0 -472 200.5t-185 510.5v77q0 308 184.5 510.5t472.5 202.5q203 0 367 -122t254 -339l-131 -65q-74 180 -203 279.5t-287 99.5q-220 0 -365 -158.5t-145 -407.5v-77q0 -246 144.5 -406
t365.5 -160z" />
    <glyph glyph-name="H" unicode="H" horiz-adv-x="1202" 
d="M831 0v637h-686v-637h-145v1499h145v-717h686v717h146v-1499h-146z" />
    <glyph glyph-name="I" unicode="I" horiz-adv-x="370" 
d="M0 0v1499h145v-1499h-145z" />
    <glyph glyph-name="J" unicode="J" horiz-adv-x="815" 
d="M0 145q274 0 367 101q52 55 67 129q8 35 6 65v1059h148v-578q0 -578 -34 -652t-81 -124h2q-141 -147 -475 -147v147z" />
    <glyph glyph-name="K" unicode="K" horiz-adv-x="1318" 
d="M145 0h-145v1499h145v-717q223 6 279 52l557 698l104 -107l-520 -647l529 -733l-131 -68l-510 707q-113 -39 -308 -45v-639z" />
    <glyph glyph-name="L" unicode="L" horiz-adv-x="1116" 
d="M0 0v1499h145v-1352h746v-147h-891z" />
    <glyph glyph-name="M" unicode="M" horiz-adv-x="1599" 
d="M1374 -2h-147v1237l-510 -617h-72l-498 613v-1233h-147v1477l96 49l586 -719l596 721l96 -49v-1479z" />
    <glyph glyph-name="N" unicode="N" horiz-adv-x="1488" 
d="M0 -2v1444l98 49l1018 -1208v1218h148v-1462l-99 -47l-1020 1208v-1202h-145z" />
    <glyph glyph-name="O" unicode="O" horiz-adv-x="1540" 
d="M290.5 1195q-143.5 -159 -143.5 -404v-80q0 -246 143.5 -405t364 -159t365.5 158t145 406v80q0 247 -145 405t-365.5 158t-364 -159zM0 711v80q0 309 136 456.5t257 200.5t263 53q285 0 472 -200t187 -510v-80q0 -311 -187 -511t-472 -200q-142 0 -263 53t-257 200.5
t-136 457.5z" />
    <glyph glyph-name="P" unicode="P" horiz-adv-x="1017" 
d="M147 1354v-559h377q53 39 81 154.5t38 226.5q6 51 -26 87t-96.5 60.5t-127.5 28.5l-28 2h-218zM0 0v1501h365q119 0 218 -45t142 -94v2q76 -82 66 -199q-27 -288 -101 -386.5t-106.5 -115t-36.5 -16.5h-400v-647h-147z" />
    <glyph glyph-name="Q" unicode="Q" horiz-adv-x="1609" 
d="M1167 711v77q0 246 -143 406t-367 160t-367 -161t-143 -405v-77q0 -246 143 -407t367 -161q104 0 199 39q-123 103 -156.5 165.5t-33.5 64.5l151 57l8 -20q21 -52 65 -103t91 -84q186 161 186 449zM0 711v77q0 308 184.5 510.5t471 202.5t473 -201.5t186.5 -511.5v-77
q0 -315 -195 -521q114 -43 264 -43v-145q-209 0 -385 88q-155 -94 -320 -94q-311 0 -495 202.5t-184 512.5z" />
    <glyph glyph-name="R" unicode="R" horiz-adv-x="1189" 
d="M145 797h469q47 16 78 140t43 241q0 56 -28 90q-43 46 -118 64t-104 20l-28 2h-312v-557zM145 0h-145v1501h457q119 0 218 -45t142 -92q72 -86 64 -199q-24 -265 -99 -376.5t-139 -135.5l322 -594l-131 -65l-355 657h-334v-651z" />
    <glyph glyph-name="S" unicode="S" horiz-adv-x="1185" 
d="M813 457q0 66 -57 123q-98 100 -340 100q-105 0 -190 36t-130 81q-96 96 -96 257q0 315 248.5 404.5t707.5 -20.5l-61 -146q-343 93 -546.5 33.5t-203.5 -276.5q0 -141 93.5 -179.5t154.5 -41.5l23 -1q305 0 446 -147q96 -101 96 -223q0 -323 -249.5 -415t-708.5 19
l61 146q320 -122 478.5 -69.5t216 129.5t57.5 190z" />
    <glyph glyph-name="T" unicode="T" horiz-adv-x="1503" 
d="M565 -2v1356h-565v147h1278v-147h-565v-1356h-148z" />
    <glyph glyph-name="U" unicode="U" horiz-adv-x="1370" 
d="M999 487v1012h146v-1012q0 -119 -68 -241q-147 -242 -487 -242q-205 0 -329.5 70.5t-184.5 165.5q-76 113 -76 241v1018h145v-1018q0 -83 56 -166h-2q106 -165 378 -165t347 123.5t75 213.5z" />
    <glyph glyph-name="V" unicode="V" horiz-adv-x="1523" 
d="M641 260q474 1143 526 1266l131 -64l-608 -1464h-102l-588 1464l133 64z" />
    <glyph glyph-name="W" unicode="W" horiz-adv-x="2449" 
d="M1528 0l-426 1212l-426 -1212h-107l-569 1462l135 66l486 -1245l426 1218h108l432 -1227l506 1252l131 -64l-594 -1462h-102z" />
    <glyph glyph-name="X" unicode="X" horiz-adv-x="1595" 
d="M16 72l572 678l-588 698l137 70l549 -652l549 652l135 -70l-588 -698l574 -678l-107 -105l-563 668l-559 -666z" />
    <glyph glyph-name="Y" unicode="Y" horiz-adv-x="1490" 
d="M707 -4h-148l2 700l-561 762l133 68l500 -680l500 680l133 -68l-559 -760v-702z" />
    <glyph glyph-name="Z" unicode="Z" horiz-adv-x="1433" 
d="M16 1356v145h1149l43 -86l-977 -1270h959v-145h-1149l-41 86l975 1270h-959z" />
    <glyph glyph-name="bracketleft" unicode="[" horiz-adv-x="641" 
d="M0 -193v1655h416v-143h-275v-1368h275v-144h-416z" />
    <glyph glyph-name="backslash" unicode="\" 
d="M0 1493l127 63l768 -1525l-125 -62z" />
    <glyph glyph-name="bracketright" unicode="]" horiz-adv-x="641" 
d="M0 -193v144h274v1368h-274v143h416v-1655h-416z" />
    <glyph glyph-name="asciicircum" unicode="^" horiz-adv-x="1339" 
d="M0 764l518 723h76l520 -723l-125 -64l-434 600l-434 -608z" />
    <glyph glyph-name="underscore" unicode="_" horiz-adv-x="1167" 
d="M0 -90v143h942v-143h-942z" />
    <glyph glyph-name="grave" unicode="`" horiz-adv-x="624" 
d="M0 1456l102 100l297 -299l-100 -102z" />
    <glyph glyph-name="a" unicode="a" horiz-adv-x="933" 
d="M145 172q14 -27 160 -27q147 0 189.5 19.5t53.5 33t17 23.5v262q-61 -4 -126.5 -8t-159 -14t-105.5 -34q-12 -25 -18 -65q-11 -74 -11 -93v-97zM2 283q0 111 45 206q49 107 518 136v172q0 81 -64.5 106t-94.5 27l-31 2q-139 0 -179 -47.5t-40 -83.5l-148 -2
q0 61 37 118.5t106 105.5t224 48q214 0 274 -74.5t60 -136.5v-860h-144v43q-89 -41 -210 -41q-122 0 -191.5 22.5t-105 51t-45 54.5t-10.5 34t-1 119z" />
    <glyph glyph-name="b" unicode="b" horiz-adv-x="1062" 
d="M334 141q151 0 256.5 116.5t105.5 284.5q0 169 -105 285.5t-253 116.5q-82 0 -197 -76v-651q115 -76 193 -76zM334 -2q-108 0 -193 45v-43h-141v1581h141v-537q92 43 249 43t302.5 -160.5t145.5 -385.5t-146 -384t-358 -159z" />
    <glyph glyph-name="c" unicode="c" horiz-adv-x="964" 
d="M436 -2q-95 0 -220.5 75t-170.5 206t-45 247q0 200 63 314.5t152 169.5q100 69 221 69h303v-143h-303q-73 0 -183 -73t-110 -321q0 -249 110.5 -325t182.5 -76h303v-143h-303z" />
    <glyph glyph-name="d" unicode="d" horiz-adv-x="1062" 
d="M502 944q-150 0 -255.5 -117t-105.5 -285q0 -167 106 -284t253 -117q82 0 196 74v651q-118 78 -194 78zM696 0v43q-92 -45 -195 -45q-207 0 -354 160t-147 383t146.5 384.5t353.5 161.5q104 0 196 -45v541h142v-1583h-142z" />
    <glyph glyph-name="e" unicode="e" 
d="M440 584q156 0 314 14q-14 156 -88 247t-199 91t-215.5 -93t-108.5 -243q141 -16 297 -16zM444 -2q-76 0 -161.5 40t-149 112.5t-98.5 172t-35 275.5t133.5 328.5t333.5 152.5t314 -153.5t114 -413.5q-20 -23 -137 -47.5t-276 -24.5t-337 17q30 -220 146.5 -269
t165.5 -49q79 0 166.5 52t154.5 124l101 -100q-76 -84 -161 -132t-141.5 -66.5t-132.5 -18.5z" />
    <glyph glyph-name="f" unicode="f" horiz-adv-x="942" 
d="M164 0v936h-164v143h164v197q0 177 167.5 242t385.5 65v-143q-254 0 -333 -51.5t-79 -108.5v-201h412v-143h-412v-936h-141z" />
    <glyph glyph-name="g" unicode="g" horiz-adv-x="1089" 
d="M504 932q-76 0 -141.5 -32t-114.5 -85t-78 -127t-29 -195.5t106 -238.5t255 -117q78 0 125 24.5t96 74.5v595q-49 49 -96 75t-123 26zM510 -6q-112 0 -203.5 43t-159 115.5t-107.5 171t-40 264t146 324.5t356 159q121 0 221 -63v69h141v-1220q0 -76 -71 -166t-198.5 -122
t-256.5 -32h-170v141h170q235 0 303 68t75 99l7 32v180q-101 -63 -213 -63z" />
    <glyph glyph-name="h" unicode="h" horiz-adv-x="1017" 
d="M384 944q-78 0 -243 -55v-889h-141v1583h141v-545q147 49 253 49t200 -43q95 -43 136.5 -102t52 -83.5t10.5 -27.5v-831h-140l-2 809q-37 71 -114 109q-75 26 -153 26z" />
    <glyph glyph-name="i" unicode="i" horiz-adv-x="368" 
d="M0 1249v252h143v-252h-143zM0 0v1079h143v-1079h-143z" />
    <glyph glyph-name="j" unicode="j" horiz-adv-x="436" 
d="M68 1249v252h143v-252h-143zM-225 -463v141h159q92 3 113 110t21 247v1044h141v-1032q0 -205 -29.5 -300t-85 -152.5t-160.5 -57.5h-159z" />
    <glyph glyph-name="k" unicode="k" horiz-adv-x="1056" 
d="M141 0h-141v1583h141v-911q115 8 159 22.5t48 18.5q39 43 85 93t114 124t153 170l131 -70l-346 -379l332 -592l-127 -63l-321 577q-96 -31 -228 -43v-530z" />
    <glyph glyph-name="l" unicode="l" horiz-adv-x="368" 
d="M0 -2v1585h143v-1585h-143z" />
    <glyph glyph-name="m" unicode="m" horiz-adv-x="1589" 
d="M612 795q-64 127 -264 127q-86 0 -207 -37v-885h-141v1077h141v-39q117 37 221 37q145 0 271 -90q223 88 340 88q202 0 287.5 -98t103.5 -156v-819h-141v793q-75 131 -256 131q-94 0 -234 -52q16 -31 23 -59v-813h-144v795z" />
    <glyph glyph-name="n" unicode="n" horiz-adv-x="989" 
d="M623 2v807q-37 68 -111 97.5t-152 29.5t-219 -45v-889h-141v1075h141v-35q129 37 233 37t195 -41q88 -47 130 -103t53.5 -81t11.5 -29v-823h-141z" />
    <glyph glyph-name="o" unicode="o" horiz-adv-x="1175" 
d="M236.5 831q-93.5 -105 -93.5 -264v-53q0 -161 94 -266t238.5 -105t238 104.5t93.5 266.5v53q0 160 -93 264.5t-238.5 104.5t-239 -105zM475.5 0q-204.5 0 -340 146.5t-135.5 367.5v53q0 221 134 366.5t341.5 145.5t341 -145t133.5 -367v-53q0 -222 -135 -368t-339.5 -146
z" />
    <glyph glyph-name="p" unicode="p" horiz-adv-x="1062" 
d="M334 139q151 0 256.5 116.5t105.5 285.5q0 170 -105 286.5t-253 116.5q-76 0 -197 -80v-647q115 -78 193 -78zM340 1085q102 0 193.5 -43t198 -158.5t106.5 -341.5t-146 -385t-354 -159q-106 0 -197 45v-508h-141v1542h141v-39q97 47 199 47z" />
    <glyph glyph-name="q" unicode="q" horiz-adv-x="1062" 
d="M502 944q-150 0 -255.5 -117t-105.5 -286q0 -168 106 -285t253 -117q76 0 196 76v651q-118 78 -194 78zM0 542q0 223 147 383t353 160q98 0 196 -47v39h142v-1542h-142v508q-85 -45 -191 -45q-211 0 -358 160.5t-147 383.5z" />
    <glyph glyph-name="r" unicode="r" horiz-adv-x="749" 
d="M524 936q-268 0 -385 -258v-678h-139v1079h139v-172q59 70 153.5 121t231.5 51v-143z" />
    <glyph glyph-name="s" unicode="s" horiz-adv-x="933" 
d="M309 471q-84 0 -143.5 27.5t-91.5 60.5h2q-76 74 -76 193q0 236 185.5 299t521.5 -31l-62 -141q-209 91 -317.5 61.5t-148.5 -76.5t-40 -107t33 -98h-2q28 -28 70 -38q41 -9 67 -7q221 0 326 -110q74 -74 74 -184t-52.5 -185.5t-192.5 -126t-462 50.5l61 142
q226 -106 331.5 -65.5t139 89.5t33.5 97t-33 86q-63 63 -223 63z" />
    <glyph glyph-name="t" unicode="t" horiz-adv-x="616" 
d="M0 936v143h88v191h141v-191h162v-143h-162v-688q3 -68 43.5 -91.5t118.5 -23.5v-137q-152 4 -227.5 61.5t-75.5 192.5v686h-88z" />
    <glyph glyph-name="u" unicode="u" horiz-adv-x="989" 
d="M0 254v823h141l2 -805q76 -129 256 -129q82 0 224 43v891h141v-1075h-141v35q-249 -76 -426 4q-91 41 -134 100.5t-53 84t-10 28.5z" />
    <glyph glyph-name="v" unicode="v" horiz-adv-x="1187" 
d="M473 250l361 856l129 -62l-443 -1048h-96l-424 1048l127 62z" />
    <glyph glyph-name="w" unicode="w" horiz-adv-x="1818" 
d="M1128 266q224 538 340 836l125 -62l-422 -1040h-100l-280 801l-281 -801h-102l-408 1040l131 64l322 -832l286 807h105z" />
    <glyph glyph-name="x" unicode="x" horiz-adv-x="1239" 
d="M0 51l412 490l-398 471l103 102l389 -463l391 463l102 -102l-399 -471l414 -490l-129 -69l-379 446l-381 -451z" />
    <glyph glyph-name="y" unicode="y" horiz-adv-x="1189" 
d="M82 -463v139q87 0 169 117.5t144 265.5l-395 961l127 61l346 -841l363 841l129 -61q-154 -354 -263.5 -629.5t-206 -465t-192.5 -289t-221 -99.5z" />
    <glyph glyph-name="z" unicode="z" horiz-adv-x="1105" 
d="M16 936v143h822l43 -84l-658 -852h641v-143h-825l-39 84l655 852h-639z" />
    <glyph glyph-name="braceleft" unicode="{" horiz-adv-x="641" 
d="M252 478v-427q0 -129 56.5 -203.5t81.5 -97.5l26 -22l-74 -129l-36 31q-98 87 -146.5 202t-48.5 219v207q0 207 -7 256h-104v141h102q9 54 9 63v400q0 179 79.5 284t116.5 137t39 34l70 -131l-26 -23q-67 -59 -102.5 -142t-35.5 -159v-239q0 -239 -29 -297
q29 -75 29 -104z" />
    <glyph glyph-name="bar" unicode="|" horiz-adv-x="366" 
d="M0 -408v1928h141v-1928h-141z" />
    <glyph glyph-name="braceright" unicode="}" horiz-adv-x="641" 
d="M305 460v-409q0 -176 -80 -282.5t-115 -138.5l-36 -31l-74 129l26 22q68 60 103 142.5t35 158.5v314q0 2 -3 68.5t29 148.5q-26 58 -26 91v445q0 126 -56.5 202.5t-81.5 98.5l-26 23l70 131q2 -2 38.5 -34t116.5 -137.5t80 -283.5v-218q0 -219 8 -245h103v-141h-105
q-6 -42 -6 -54z" />
    <glyph glyph-name="asciitilde" unicode="~" horiz-adv-x="1001" 
d="M523 586q-46 0 -93 -54v3q-88 -88 -192 -89h-5q-108 0 -233 125l84 84q100 -86 154 -86q55 0 104 49q88 92 195 89q67 0 131 -40.5t108 -84.5q-18 -18 -28.5 -27.5t-17.5 -16t-16 -15.5t-28 -27q-27 37 -72 63.5t-91 26.5z" />
    <glyph glyph-name="exclamdown" unicode="&#xa1;" horiz-adv-x="366" 
d="M0 850v229h141v-229h-141zM0 -465v1182h141v-1182h-141z" />
    <glyph glyph-name="cent" unicode="&#xa2;" horiz-adv-x="1026" 
d="M377 891q-85 0 -137 -49v2q-98 -86 -98 -293t98 -311q59 -50 137 -50v701zM518 -240h-141v287h-2q-76 0 -136.5 28.5t-91.5 55.5q-147 135 -147 416t147 403v-2q88 82 230 82v293h141v-301q183 -20 283 -27l-2 -145l-281 29v-676l281 28l2 -145l-283 -29v-297z" />
    <glyph glyph-name="sterling" unicode="&#xa3;" horiz-adv-x="1232" 
d="M694 -8h-2q-139 0 -258 119q-140 140 -209 42t-76.5 -105t-14.5 -15t-15 -17l-119 60q2 2 19.5 29.5t74 92.5t133.5 99q28 63 34.5 165.5t8.5 147.5h-213v142h215q-3 268 -29 353t-47.5 123t-45.5 95q265 78 375 78t209 -34.5t169 -117t91 -139.5l10 -25l-105 -51
q0 2 -20.5 37t-98 110.5t-231.5 75.5q-95 0 -203 -28q60 -176 66 -477h315v-142h-315q-13 -197 -52 -301q90 -14 173 -96t162 -80q78 2 139 66.5t61 66.5l113 -110q-84 -84 -170 -124t-144 -40z" />
    <glyph glyph-name="currency" unicode="&#xa4;" horiz-adv-x="1337" 
d="M569.5 922q-55.5 0 -104.5 -20.5t-85 -57.5t-57.5 -85t-21.5 -103.5t21.5 -104.5t57.5 -85t85 -56.5t104.5 -20.5t103.5 20.5t84 56.5t57.5 85t21.5 104.5t-21.5 103.5t-57.5 85t-84 57.5t-103.5 20.5zM160 642q0 134 67 237l-227 247l100 101l226 -244q110 80 240 80
t229 -70l215 234l102 -101l-213 -233q78 -108 78 -251t-107 -261l183 -201l-101 -98l-190 213q-86 -49 -196 -49t-206 57l-202 -221l-103 100l197 213q-92 113 -92 247z" />
    <glyph glyph-name="yen" unicode="&#xa5;" horiz-adv-x="1449" 
d="M541 -4v399h-340v144h340v110h-340v142h254l-455 618l129 64l483 -654l484 654l129 -64l-457 -618h256v-142h-340v-110h340v-144h-340v-399h-143z" />
    <glyph glyph-name="brokenbar" unicode="&#xa6;" horiz-adv-x="366" 
d="M0 -207v682h141v-682h-141zM0 569v680h141v-680h-141z" />
    <glyph glyph-name="section" unicode="&#xa7;" horiz-adv-x="1019" 
d="M651 610q-26 87 -144 136t-165 67l-27 10q-41 16 -54 22q-13 7 -21 11q-111 -138 -95 -194q17 -97 310 -205l92 -35q4 -4 8 -4q106 126 96 192zM731 125q0 -39 -8 -72q-23 -111 -101 -176t-180 -65q-197 0 -303 110q-84 94 -84 309l142 -2v-25q0 -134 53 -192
q53 -57 182 -57q68 0 113 49t45 110q0 135 -103 177q-14 8 -44 17t-42 18q-165 62 -232 105.5t-159.5 149.5t119.5 365q-63 82 -63 199q0 159 93 236t201 77q276 0 327.5 -145.5t51.5 -160.5v-112l-147 2q7 75 -7 132t-36 79q-59 66 -189 66q-68 0 -110.5 -49t-42.5 -62v-61
q0 -49 22 -97t74 -71l27 -10v2q14 -4 30.5 -12.5t32.5 -14.5v2q164 -62 267 -128.5t129 -186.5q26 -121 -123 -305q65 -89 65 -201z" />
    <glyph glyph-name="dieresis" unicode="&#xa8;" horiz-adv-x="550" 
d="M205 1225v237h121v-237h-121zM0 1225v237h121v-237h-121z" />
    <glyph glyph-name="copyright" unicode="&#xa9;" horiz-adv-x="1691" 
d="M352 753q0 318 141.5 373.5t202.5 59.5h244v-142h-244q-107 0 -154.5 -88t-47.5 -191q0 -173 75 -228.5t129 -55.5h242v-141h-244l-25 3q-71 8 -131.5 44.5t-124 115t-63.5 250.5zM731 1354q-123 0 -230.5 -46t-187.5 -126t-126 -187.5t-46 -230.5t46 -230.5t126 -188.5
t187.5 -127t230.5 -46t231.5 46t188.5 127t127 188.5t47 230.5t-47 230.5t-127 187.5t-188.5 126t-231.5 46zM731.5 29q-151.5 0 -285 58t-232.5 157.5t-156.5 233.5t-57.5 285t57.5 284t156.5 233t232.5 157.5t285 57.5t285.5 -57.5t233.5 -157.5t157.5 -234t58 -284
t-58 -284t-157.5 -233.5t-233.5 -157.5t-285.5 -58z" />
    <glyph glyph-name="ordfeminine" unicode="&#xaa;" horiz-adv-x="755" 
d="M258 729q128 0 166 51v203q-279 -12 -293 -41q-22 -44 -22 -62v-130q21 -21 149 -21zM268 623q-155 0 -210.5 44t-55.5 74v83q0 83 36 166t386 97v132q0 61 -49 78.5t-72 19.5l-22 2q-103 0 -133.5 -36.5t-30.5 -65.5l-111 2q0 49 53 126.5t222 77.5h41q40 0 124 -29
t84 -128v-645h-106v32q-62 -30 -156 -30z" />
    <glyph glyph-name="guillemotleft" unicode="&#xab;" horiz-adv-x="1009" 
d="M0 522v66l449 364l83 -86l-378 -309l366 -305l-55 -109zM250 522v66l448 364l86 -86l-381 -309l369 -305q-32 -63 -59 -111z" />
    <glyph glyph-name="logicalnot" unicode="&#xac;" horiz-adv-x="1183" 
d="M817 295v369h-817v141h958v-510h-141z" />
    <glyph glyph-name="registered" unicode="&#xae;" horiz-adv-x="1677" 
d="M643 997v-258q23 2 48.5 3t47.5 6l64 6q10 33 13 67.5t8 78.5t2 51t-7 16q-23 23 -100 30h-76zM520 319v799h201q67 0 117.5 -24.5t72.5 -49.5q41 -36 41 -118q-12 -135 -36.5 -205t-34.5 -86l-11 -2l118 -126t118 -124l-111 -61l-282 299l-70 -7v-295h-123zM725 1341
q-121 0 -227.5 -46t-186.5 -125.5t-126 -186t-46 -227.5t46 -227.5t126 -185.5t186.5 -125t227.5 -46t227.5 46t186.5 125t126 185.5t46 227.5t-46 227.5t-126 186t-186.5 125.5t-227.5 46zM724.5 31q-149.5 0 -281.5 57t-230 155.5t-155.5 230.5t-57.5 281.5t57.5 282.5
t155.5 231.5t230 156t281.5 57.5t283 -57.5t231.5 -156t155.5 -231.5t57.5 -282.5t-57.5 -281.5t-155.5 -230.5t-231.5 -155.5t-283 -57z" />
    <glyph glyph-name="degree" unicode="&#xb0;" horiz-adv-x="851" 
d="M313 1284q-72 0 -122 -50t-50 -122t51 -121t122 -49t121 49t50 121t-50 122t-122 50zM92 891q-92 92 -92 222.5t93 221t221 90.5t220.5 -90.5t92.5 -221t-91.5 -222.5t-221.5 -92t-222 92z" />
    <glyph glyph-name="plusminus" unicode="&#xb1;" horiz-adv-x="1118" 
d="M0 2v141h893v-141h-893zM375 182v377h-375v141h375v375h141v-375h377v-141h-377v-377h-141z" />
    <glyph glyph-name="twosuperior" unicode="&#xb2;" horiz-adv-x="595" 
d="M248 1325q0 33 -16.5 53.5t-45.5 20.5q-47 0 -61 -53l-2 -52v-6l-123 2l2 66q10 78 59 122t127 44t130.5 -54.5t52.5 -140.5q-6 -89 -92 -172l-27 -31l-4 -3q0 1 -2 -1l-33 -33h158v-124h-338l-29 57q5 38 88 121l41 41q16 16 32.5 30.5t29.5 28.5v-2q53 53 53 86z" />
    <glyph glyph-name="threesuperior" unicode="&#xb3;" horiz-adv-x="608" 
d="M260 1141q0 46 -57 55h-103v121h95q23 0 38 12t15 30.5t-15.5 30t-37.5 11.5h-15q-24 0 -69 -41l-111 59q101 105 180 105h15q76 0 126 -46t50 -112t-35 -106q47 -47 47 -122t-54.5 -125t-133.5 -50h-15q-68 0 -157 69l57 109q77 -56 100 -56h15q29 0 47 15.5t18 40.5z
" />
    <glyph glyph-name="acute" unicode="&#xb4;" horiz-adv-x="593" 
d="M0 1257l303 226l66 -129l-293 -217z" />
    <glyph glyph-name="mu" unicode="&#xb5;" horiz-adv-x="1030" 
d="M418 -35q-157 0 -277 96v-485h-141v1503h141v-819q44 -66 120 -110t168 -44q91 0 233 78v895h143v-1167h-143v143q-72 -45 -125.5 -67.5t-118.5 -22.5z" />
    <glyph glyph-name="paragraph" unicode="&#xb6;" horiz-adv-x="1421" 
d="M141 866q0 -403 576 -403h6v837q-198 -14 -309 -62t-192 -129.5t-81 -242.5zM723 -410v732h-10q-243 0 -371.5 58t-183.5 105q-158 149 -158 379q0 184 72.5 285.5t159.5 158t225 96.5t175 40h564v-141h-86v-1713h-387z" />
    <glyph glyph-name="periodcentered" unicode="&#xb7;" horiz-adv-x="366" 
d="M0 504v291h141v-291h-141z" />
    <glyph glyph-name="cedilla" unicode="&#xb8;" horiz-adv-x="610" 
d="M256 -198l4 28q0 6 8 23h-205l-40 41l18 223h121l-12 -142l77 -2h56q109 -88 100 -145l-21 -143q-10 -10 -18 -18.5t-18 -18.5l-326 67q0 31 1 60.5t1 60.5l246 -53q8 16 8 19z" />
    <glyph glyph-name="onesuperior" unicode="&#xb9;" horiz-adv-x="462" 
d="M238 963h-123v393q-62 -17 -115 -17v125q66 0 106 35q20 16 31 37l101 -6v-567z" />
    <glyph glyph-name="ordmasculine" unicode="&#xba;" horiz-adv-x="731" 
d="M252 1399q-57 0 -93 -41t-36 -107v-24q0 -66 36 -107t93 -41t94 41t37 107v24q0 66 -37 107t-94 41zM71 1032.5q-71 76.5 -71 194.5v24q0 119 71.5 194t180.5 75t181.5 -74.5t72.5 -194.5v-24q0 -119 -72 -195t-182 -76t-181 76.5z" />
    <glyph glyph-name="guillemotright" unicode="&#xbb;" horiz-adv-x="1009" 
d="M629 559l-369 297q18 29 30.5 55.5t28.5 55.5l465 -379v-66l-450 -368l-68 100zM0 244l377 315q-37 32 -70 55q-76 61 -153.5 123t-143.5 119q16 29 28.5 55.5t29.5 55.5l464 -379v-66l-448 -366z" />
    <glyph glyph-name="onequarter" unicode="&#xbc;" horiz-adv-x="1306" 
d="M868 289v164l-114 -164h114zM270 762h-123v506q-68 -27 -147 -29v123q78 5 141 90l129 -4v-686zM991 289h90v-123h-90v-162h-123v162h-270l-35 76l334 456l94 -4v-405zM885 1454l108 -57l-848 -1417l-108 57z" />
    <glyph glyph-name="onehalf" unicode="&#xbd;" horiz-adv-x="1263" 
d="M818 702q93 0 156.5 -68.5t63.5 -172.5q-12 -111 -116 -215l-121 -121h237v-123h-424l-57 123q72 31 186.5 126t141 138.5t30.5 71.5q0 53 -27.5 86t-71.5 33q-82 0 -105 -95v-55h-123l2 68q14 90 74.5 147t153.5 57zM270 762h-123v506q-68 -27 -147 -29v123q78 5 141 90
l129 -4v-686zM45 37l848 1417q31 -14 54.5 -28.5t51.5 -28.5l-847 -1417z" />
    <glyph glyph-name="threequarters" unicode="&#xbe;" horiz-adv-x="1312" 
d="M874 289v160q-29 -36 -116 -160h116zM207 874h20q45 0 75 26t30 66t-30 64.5t-75 24.5h-108v123h114q35 2 57.5 24t22.5 54t-23.5 52.5t-62.5 20.5h-18q-39 0 -96 -51l-113 59q121 115 209 115h18q92 0 150.5 -56.5t58.5 -138.5t-51 -137q68 -61 68 -154t-63.5 -152.5
t-162.5 -59.5h-20q-80 0 -184 75q16 29 29.5 52.5t27.5 52.5q79 -60 127 -60zM997 289h90v-123h-90v-162h-123v162h-270l-35 72l344 473l84 -43v-379zM1006 1393l-844 -1413l-107 57l842 1415z" />
    <glyph glyph-name="questiondown" unicode="&#xbf;" horiz-adv-x="968" 
d="M350 709q0 -150 35 -224q37 -66 98.5 -120t118.5 -110t99 -121.5t42 -146.5q0 -156 -104 -258t-261 -102t-267.5 113.5t-110.5 312.5l143 2q0 -135 70 -210.5t170 -75.5q51 0 100 24.5t115.5 109.5t-15 169t-137.5 131q-133 111 -184 221q-55 108 -55 285h143zM350 1079
v-217h-143v217h143z" />
    <glyph glyph-name="Agrave" unicode="&#xc0;" horiz-adv-x="1515" 
d="M453 1731l67 133l314 -232l-68 -133zM463 784h371l-183 457zM401 639l-268 -657l-133 57l602 1462h103l585 -1462l-133 -64l-266 664h-490z" />
    <glyph glyph-name="Aacute" unicode="&#xc1;" horiz-adv-x="1515" 
d="M453 1632l313 232l68 -133l-304 -224zM463 784h371l-183 457zM401 639l-268 -657l-133 57l602 1462h103l585 -1462l-133 -64l-266 664h-490z" />
    <glyph glyph-name="Acircumflex" unicode="&#xc2;" horiz-adv-x="1515" 
d="M379 1524l235 288h62q59 -72 119.5 -144.5t119.5 -143.5l-118 -60l-152 185l-158 -193zM463 784h371l-183 457zM401 639l-268 -657l-133 57l602 1462h103l585 -1462l-133 -64l-266 664h-490z" />
    <glyph glyph-name="Atilde" unicode="&#xc3;" horiz-adv-x="1515" 
d="M738 1651q-22 0 -46 -21q-61 -61 -131 -61h-2q-80 0 -194 114q105 57 118 66q21 -24 43.5 -38.5t35.5 -14.5t36 18q64 64 125 64t113 -36.5t94 -78.5l-96 -86q-74 74 -96 74zM463 784h371l-183 457zM401 639l-268 -657l-133 57l602 1462h103l585 -1462l-133 -64l-266 664
h-490z" />
    <glyph glyph-name="Adieresis" unicode="&#xc4;" horiz-adv-x="1515" 
d="M465 1520v262h145v-262h-145zM674 1520v262h145v-262h-145zM463 784h371l-183 457zM401 639l-268 -657l-133 57l602 1462h103l585 -1462l-133 -64l-266 664h-490z" />
    <glyph glyph-name="Aring" unicode="&#xc5;" horiz-adv-x="1515" 
d="M650 1792q-24 0 -39 -15t-15 -41t15 -41.5t39 -15.5t40.5 15.5t16.5 41.5t-16.5 41t-40.5 15zM463 784h371l-183 457zM651.5 1571q-67.5 0 -117 49t-49.5 115t49 117t117 51t117 -50.5t49 -116.5q0 -67 -49 -116t-116.5 -49zM401 639l-268 -657l-133 57l602 1462h103
l585 -1462l-133 -64l-266 664h-490z" />
    <glyph glyph-name="AE" unicode="&#xc6;" horiz-adv-x="1847" 
d="M410 782h272l-115 453zM1622 150v-148h-713l-39 37l-151 594h-361l-223 -651l-135 57l504 1462h964v-147h-778l144 -572h477v-149h-439q28 -115 123 -483h627z" />
    <glyph glyph-name="Ccedilla" unicode="&#xc7;" horiz-adv-x="1144" 
d="M920 6h-385l-15 -47h86q23 0 63 -33.5t36 -113.5l-15 -136l-47 -45l-287 70q0 31 2 63.5t2 63.5l201 -47l12 10q2 6 2 9v32l-137 16l-67 31l37 152q-119 40 -203 123q-205 199 -205 598t205 598q92 92 188 117.5t130 26.5l34 1h363v-145h-365l-24 -1q-61 -3 -122 -34
t-104 -72q-160 -152 -160 -486t160 -499q72 -62 137.5 -82t88.5 -22l24 -2h365v-146z" />
    <glyph glyph-name="Egrave" unicode="&#xc8;" horiz-adv-x="1148" 
d="M162 1755l67 133l324 -237l-68 -133zM0 0v1499h770v-145h-623v-570l558 2v-147l-558 -2v-490h777v-147h-924z" />
    <glyph glyph-name="Eacute" unicode="&#xc9;" horiz-adv-x="1148" 
d="M238 1690l303 225l65 -129l-293 -217zM0 -2v1503h772v-147h-625v-570h558v-147h-558v-492h777v-147h-924z" />
    <glyph glyph-name="Ecircumflex" unicode="&#xca;" horiz-adv-x="1146" 
d="M80 1599l246 297h63l248 -299l-117 -57l-162 193l-165 -201zM0 0v1497h768v-147h-621v-566h555v-147h-555v-490h775v-147h-922z" />
    <glyph glyph-name="Edieresis" unicode="&#xcb;" horiz-adv-x="1146" 
d="M174 1556v271h148v-271h-148zM391 1556v271h148v-271h-148zM0 0v1499h770v-147h-623v-566h558v-147h-558v-492h775v-147h-922z" />
    <glyph glyph-name="Igrave" unicode="&#xcc;" horiz-adv-x="634" 
d="M0 1749l68 133l342 -250l-107 -106zM121 0v1501h147v-1501h-147z" />
    <glyph glyph-name="Iacute" unicode="&#xcd;" horiz-adv-x="616" 
d="M0 1647l324 237l67 -133l-311 -229zM123 0v1501h147v-1501h-147z" />
    <glyph glyph-name="Icircumflex" unicode="&#xce;" horiz-adv-x="755" 
d="M190 0v1501h148v-1501h-148zM0 1573q154 188 231 278h68l231 -278l-92 -90l-170 209l-172 -207z" />
    <glyph glyph-name="Idieresis" unicode="&#xcf;" horiz-adv-x="589" 
d="M109 0v1501h147v-1501h-147zM217 1554v269h148v-269h-148zM0 1554v269h147v-269h-147z" />
    <glyph glyph-name="Eth" unicode="&#xd0;" horiz-adv-x="1597" 
d="M721 784v-147h-303v-490h393l24 1q62 3 124.5 34t105.5 72h-2q160 156 160 499t-160 496q-72 69 -138.5 86t-89.5 18l-24 1h-393v-570h303zM272 0v637h-272v147h272v717h539q114 0 204.5 -45t149.5 -102q207 -201 207 -601t-207 -603q-97 -93 -192.5 -121.5t-157.5 -28.5
h-543z" />
    <glyph glyph-name="Ntilde" unicode="&#xd1;" horiz-adv-x="1488" 
d="M0 -2v1444l98 49l1018 -1208v1218h148v-1462l-99 -47l-1020 1208v-1202h-145zM549 1569q-67 0 -124.5 52t-68.5 62l115 66q23 -26 45.5 -39.5t34.5 -13.5t43 22q55 60 127 60t131 -56.5t66 -62.5l-84 -96q-10 10 -24.5 25.5t-44.5 39t-41 23.5t-42 -21q-59 -61 -131 -61
h-2z" />
    <glyph glyph-name="Ograve" unicode="&#xd2;" horiz-adv-x="1533" 
d="M459 1753l67 133l322 -239l-70 -134zM290.5 1189q-143.5 -159 -143.5 -403v-77q0 -246 143.5 -405t363.5 -159t363.5 159t143.5 405v77q0 244 -143.5 403t-363.5 159t-363.5 -159zM0 709v77q0 308 185 508.5t469 200.5t469.5 -201.5t185.5 -507.5v-77
q0 -308 -185.5 -509.5t-469.5 -201.5t-469 200.5t-185 510.5z" />
    <glyph glyph-name="Oacute" unicode="&#xd3;" horiz-adv-x="1533" 
d="M459 1647l321 239l68 -133l-309 -231zM290.5 1189q-143.5 -159 -143.5 -403v-77q0 -246 143.5 -405t363.5 -159t363.5 159t143.5 405v77q0 244 -143.5 403t-363.5 159t-363.5 -159zM0 709v77q0 308 185 508.5t469 200.5t469.5 -201.5t185.5 -507.5v-77
q0 -308 -185.5 -509.5t-469.5 -201.5t-469 200.5t-185 510.5z" />
    <glyph glyph-name="Ocircumflex" unicode="&#xd4;" horiz-adv-x="1533" 
d="M290.5 1189q-143.5 -159 -143.5 -403v-77q0 -246 143.5 -405t363.5 -159t363.5 159t143.5 405v77q0 244 -143.5 403t-363.5 159t-363.5 -159zM0 709v77q0 308 185 508.5t469 200.5t469.5 -201.5t185.5 -507.5v-77q0 -308 -185.5 -509.5t-469.5 -201.5t-469 200.5
t-185 510.5zM383 1599l240 299h65l248 -299l-119 -61l-160 197q-28 -41 -110 -138q-14 -20 -26.5 -34.5t-24.5 -28.5z" />
    <glyph glyph-name="Otilde" unicode="&#xd5;" horiz-adv-x="1533" 
d="M290.5 1189q-143.5 -159 -143.5 -403v-77q0 -246 143.5 -405t363.5 -159t363.5 159t143.5 405v77q0 244 -143.5 403t-363.5 159t-363.5 -159zM0 709v77q0 308 185 508.5t469 200.5t469.5 -201.5t185.5 -507.5v-77q0 -308 -185.5 -509.5t-469.5 -201.5t-469 200.5
t-185 510.5zM834 1620q-70 70 -88 70t-44 -27q-61 -55 -131 -55t-132 53t-68 59l114 62q58 -42 82 -47q23 0 47 24h-2q64 60 140 60q75 0 178 -103z" />
    <glyph glyph-name="Odieresis" unicode="&#xd6;" horiz-adv-x="1533" 
d="M690 1554v269h146v-269h-146zM473 1554v269h148v-269h-148zM290.5 1189q-143.5 -159 -143.5 -403v-77q0 -246 143.5 -405t363.5 -159t363.5 159t143.5 405v77q0 244 -143.5 403t-363.5 159t-363.5 -159zM0 709v77q0 308 185 508.5t469 200.5t469.5 -201.5t185.5 -507.5
v-77q0 -308 -185.5 -509.5t-469.5 -201.5t-469 200.5t-185 510.5z" />
    <glyph glyph-name="multiply" unicode="&#xd7;" horiz-adv-x="1347" 
d="M0 86l461 461l-461 461l102 100l459 -461l461 461l100 -100l-460 -461l460 -461l-100 -100l-461 458l-459 -458z" />
    <glyph glyph-name="Oslash" unicode="&#xd8;" horiz-adv-x="1775" 
d="M272 782v-77q0 -185 84 -324l711 866q-123 94 -291 94q-219 0 -361.5 -157.5t-142.5 -401.5zM776 147q220 0 362 158.5t142 399.5v77q0 208 -109 359l-718 -875q138 -119 323 -119zM1427 782v-77q0 -305 -135 -452t-255 -200t-261 -53q-241 0 -418 152l-229 -281l-129 76
l258 313q-133 181 -133 445v77q0 307 135 454.5t255 201t261 53.5q215 0 387 -127l254 309l133 -69l-282 -344q159 -192 159 -478z" />
    <glyph glyph-name="Ugrave" unicode="&#xd9;" horiz-adv-x="1378" 
d="M365 1731l104 104l301 -219l-68 -133zM0 477v1026h147v-1026q0 -84 60 -175t169.5 -125t215.5 -34t176 25t130 71t85 122.5t25 121.5v1020h145v-1020q0 -67 -22.5 -133.5t-48.5 -108.5q-152 -245 -484 -245q-368 0 -522 237h2q-78 121 -78 244z" />
    <glyph glyph-name="Uacute" unicode="&#xda;" horiz-adv-x="1378" 
d="M365 1602l337 245l68 -127l-305 -229zM1008 1503h145v-1020q0 -67 -22.5 -133.5t-48.5 -108.5q-152 -245 -484 -245q-368 0 -522 237h2q-78 121 -78 244v1026h147v-1026q0 -84 60 -175t170 -125t221 -34q260 0 358 170v-2q40 73 52 172v1020z" />
    <glyph glyph-name="Ucircumflex" unicode="&#xdb;" horiz-adv-x="1378" 
d="M0 477v1026h147v-1026q0 -84 60 -175t169.5 -125t215.5 -34t176 25t130 71t85 122.5t25 121.5v1020h145v-1020q0 -67 -22.5 -133.5t-48.5 -108.5q-152 -245 -484 -245q-368 0 -522 237h2q-78 121 -78 244zM305 1524l244 295h63l228 -275l-92 -90l-168 205l-35 -45
q-31 -37 -63.5 -78t-63.5 -76z" />
    <glyph glyph-name="Udieresis" unicode="&#xdc;" horiz-adv-x="1378" 
d="M610 1522v268h148v-268h-148zM397 1522v268h148v-268h-148zM0 477v1026h147v-1026q0 -84 60 -175t169.5 -125t215.5 -34t176 25t130 71t85 122.5t25 121.5v1020h145v-1020q0 -67 -22.5 -133.5t-48.5 -108.5q-152 -245 -484 -245q-368 0 -522 237h2q-78 121 -78 244z" />
    <glyph glyph-name="Yacute" unicode="&#xdd;" horiz-adv-x="1490" 
d="M440 1612l316 231l67 -133l-303 -223zM707 -4h-148l2 700l-561 762l133 68l500 -680l500 680l133 -68l-543 -735l16 -21l-32 -16v-690z" />
    <glyph glyph-name="Thorn" unicode="&#xde;" horiz-adv-x="995" 
d="M301 989q-61 0 -154 -16v-443h68q230 0 342 88v-2q66 55 66 160q0 213 -322 213zM168 383q-4 0 -21 2v-385h-147v1499h147v-379q78 15 157 15t177.5 -24t169.5 -75q119 -98 119 -263t-119 -267v2q-144 -125 -432 -125h-51z" />
    <glyph glyph-name="germandbls" unicode="&#xdf;" 
d="M2 -37v1012q0 150 40 251t93 156q100 104 254 105q211 0 291 -135q35 -66 35 -139q0 -140 -80 -275v2q-18 -35 -63.5 -104t-79.5 -123t-27 -88q34 -52 215 -74q92 -8 154.5 -78t58.5 -158q-5 -119 -145.5 -205.5t-430.5 -86.5v141q322 0 393 81t31.5 122t-73.5 43
q-274 25 -332 161q-28 71 -3 138t48 90q8 12 24.5 35.5t35 53.5t38 61.5t39.5 67.5q52 92 53 189q0 45 -14 74q-41 66 -153 66q-166 0 -212.5 -123.5t-46.5 -190.5v-1069h-143z" />
    <glyph glyph-name="agrave" unicode="&#xe0;" horiz-adv-x="933" 
d="M170 1319l66 125l305 -221l-66 -129zM331 145q173 0 234 58v280q-61 -4 -126.5 -8t-159 -14t-105.5 -34q-12 -25 -18 -65q-11 -74 -11 -93v-97q13 -27 186 -27zM2 283q0 111 45 206q49 107 518 136v172q0 81 -64.5 106t-94.5 27l-31 2q-139 0 -179 -49.5t-40 -87.5
l-148 4q0 61 37 118.5t106 105.5t224 48h55q55 0 166 -40t113 -171v-860h-144v45q-80 -43 -206 -43t-195.5 22.5t-105 51t-45 54.5t-10.5 34t-1 119z" />
    <glyph glyph-name="aacute" unicode="&#xe1;" horiz-adv-x="933" 
d="M170 1223l305 221l66 -125l-293 -217zM331 145q173 0 234 58v280q-61 -4 -126.5 -8t-159 -14t-105.5 -34q-12 -25 -18 -65q-11 -74 -11 -93v-97q13 -27 186 -27zM2 283q0 111 45 206q49 107 518 136v172q0 81 -64.5 106t-94.5 27l-31 2q-139 0 -179 -49.5t-40 -87.5
l-148 4q0 61 37 118.5t106 105.5t224 48h55q55 0 166 -40t113 -171v-860h-144v45q-80 -43 -206 -43t-195.5 22.5t-105 51t-45 54.5t-10.5 34t-1 119z" />
    <glyph glyph-name="acircumflex" unicode="&#xe2;" horiz-adv-x="933" 
d="M100 1159q74 90 226 279h63l227 -279l-110 -59l-146 182l-159 -190zM331 145q173 0 234 58v280q-61 -4 -126.5 -8t-159 -14t-105.5 -34q-12 -25 -18 -65q-11 -74 -11 -93v-97q13 -27 186 -27zM2 283q0 111 45 206q49 107 518 136v172q0 81 -64.5 106t-94.5 27l-31 2
q-139 0 -179 -49.5t-40 -87.5l-148 4q0 61 37 118.5t106 105.5t224 48h55q55 0 166 -40t113 -171v-860h-144v45q-80 -43 -206 -43t-195.5 22.5t-105 51t-45 54.5t-10.5 34t-1 119z" />
    <glyph glyph-name="atilde" unicode="&#xe3;" horiz-adv-x="933" 
d="M442 1239q-20 0 -41 -20q-57 -57 -127 -58h-2q-40 0 -83.5 28t-61.5 44t-25 22l86 86q62 -55 83 -55t42 19q63 59 124 59t115 -43t73 -72q-49 -38 -97 -69q-66 59 -86 59zM331 145q173 0 234 58v280q-61 -4 -126.5 -8t-159 -14t-105.5 -34q-12 -25 -18 -65
q-11 -74 -11 -93v-97q13 -27 186 -27zM2 283q0 111 45 206q49 107 518 136v172q0 81 -64.5 106t-94.5 27l-31 2q-139 0 -179 -49.5t-40 -87.5l-148 4q0 61 37 118.5t106 105.5t224 48h55q55 0 166 -40t113 -171v-860h-144v45q-80 -43 -206 -43t-195.5 22.5t-105 51t-45 54.5
t-10.5 34t-1 119z" />
    <glyph glyph-name="adieresis" unicode="&#xe4;" horiz-adv-x="933" 
d="M385 1112v234h139v-234h-139zM184 1112v234h142v-234h-142zM331 145q173 0 234 58v280q-61 -4 -126.5 -8t-159 -14t-105.5 -34q-12 -25 -18 -65q-11 -74 -11 -93v-97q13 -27 186 -27zM2 283q0 111 45 206q49 107 518 136v172q0 81 -64.5 106t-94.5 27l-31 2
q-139 0 -179 -49.5t-40 -87.5l-148 4q0 61 37 118.5t106 105.5t224 48h55q55 0 166 -40t113 -171v-860h-144v45q-80 -43 -206 -43t-195.5 22.5t-105 51t-45 54.5t-10.5 34t-1 119z" />
    <glyph glyph-name="aring" unicode="&#xe5;" horiz-adv-x="933" 
d="M361 1341q-24 0 -40 -16t-16 -40t16.5 -39t40.5 -15t39 15.5t15 39.5t-15.5 39.5t-39.5 15.5zM362.5 1126q-65.5 0 -113.5 47.5t-48 113t48 113.5t113.5 48t112.5 -48t47 -113.5t-47 -113t-112.5 -47.5zM331 145q173 0 234 58v280q-61 -4 -126.5 -8t-159 -14t-105.5 -34
q-12 -25 -18 -65q-11 -74 -11 -93v-97q13 -27 186 -27zM2 283q0 111 45 206q49 107 518 136v172q0 81 -64.5 106t-94.5 27l-31 2q-139 0 -179 -49.5t-40 -87.5l-148 4q0 61 37 118.5t106 105.5t224 48h55q55 0 166 -40t113 -171v-860h-144v45q-80 -43 -206 -43t-195.5 22.5
t-105 51t-45 54.5t-10.5 34t-1 119z" />
    <glyph glyph-name="ae" unicode="&#xe6;" horiz-adv-x="1693" 
d="M331 145q173 0 234 58v280q-61 -4 -126.5 -8t-159 -14t-105.5 -34q-12 -25 -18 -65q-11 -74 -11 -93v-97q13 -27 186 -27zM1014 584q156 0 313 14q-14 156 -88 247t-199 91t-216 -93.5t-107 -242.5q141 -16 297 -16zM698 918q133 161 338 161t318.5 -153.5t113.5 -413.5
q-20 -23 -137 -47.5t-275 -24.5t-337 17q31 -220 146.5 -269t164.5 -49q79 0 165 51.5t157 124.5l100 -100q-77 -86 -194.5 -151.5t-213.5 -65.5q-203 0 -335 149v-147h-144v45q-80 -43 -206 -43t-195.5 22.5t-105 51t-45 54.5t-10.5 34t-1 119t45 206q49 107 518 136v172
q0 81 -64.5 106t-94.5 27l-31 2q-139 0 -179 -49.5t-40 -87.5l-148 4q0 61 37 118.5t106 105.5t224 48h55q55 0 148.5 -33.5t119.5 -119.5z" />
    <glyph glyph-name="ccedilla" unicode="&#xe7;" horiz-adv-x="964" 
d="M0 539q0 326 215 471v-2q100 69 221 69h303v-141h-303q-72 0 -131 -38t-90 -82t-52.5 -111.5t-21.5 -166t21.5 -165t62 -125t106.5 -84t105 -25.5h303v-143h-260l-16 -59h117q18 0 57.5 -31.5t31.5 -116.5t-16 -117l-37 -34l-294 63q0 29 1 53.5t1 48.5l239 -45v37l2 37
h-164q-39 10 -44 22.5t-15 28.5q10 54 33 121q-139 31 -257 150t-118 385z" />
    <glyph glyph-name="egrave" unicode="&#xe8;" 
d="M440 584q156 0 314 14q-14 156 -88 247t-199 91t-215.5 -93t-108.5 -243q141 -16 297 -16zM444 -2q-76 0 -161.5 40t-149 112.5t-98.5 172t-35 275.5t133.5 328.5t333.5 152.5t314 -153.5t114 -413.5q-20 -23 -137 -47.5t-276 -24.5t-337 17q30 -220 146.5 -269
t165.5 -49q79 0 166.5 52t154.5 124l101 -100q-76 -84 -161 -132t-141.5 -66.5t-132.5 -18.5zM262 1319l66 125l305 -221l-66 -129z" />
    <glyph glyph-name="eacute" unicode="&#xe9;" 
d="M440 584q156 0 314 14q-14 156 -88 247t-199 91t-215.5 -93t-108.5 -243q141 -16 297 -16zM444 -2q-76 0 -161.5 40t-149 112.5t-98.5 172t-35 275.5t133.5 328.5t333.5 152.5t314 -153.5t114 -413.5q-20 -23 -137 -47.5t-276 -24.5t-337 17q30 -220 146.5 -269
t165.5 -49q79 0 166.5 52t154.5 124l101 -100q-76 -84 -161 -132t-141.5 -66.5t-132.5 -18.5zM262 1223l305 221l66 -125l-293 -217z" />
    <glyph glyph-name="ecircumflex" unicode="&#xea;" 
d="M440 584q156 0 314 14q-14 156 -88 247t-199 91t-215.5 -93t-108.5 -243q141 -16 297 -16zM444 -2q-76 0 -161.5 40t-149 112.5t-98.5 172t-35 275.5t133.5 328.5t333.5 152.5t314 -153.5t114 -413.5q-20 -23 -137 -47.5t-276 -24.5t-337 17q30 -220 146.5 -269
t165.5 -49q79 0 166.5 52t154.5 124l101 -100q-76 -84 -161 -132t-141.5 -66.5t-132.5 -18.5zM211 1176l219 270h53l219 -270l-92 -50l-153 187l-92 -111q-18 -18 -35 -38.5t-35 -41.5z" />
    <glyph glyph-name="edieresis" unicode="&#xeb;" 
d="M440 584q156 0 314 14q-14 156 -88 247t-199 91t-215.5 -93t-108.5 -243q141 -16 297 -16zM444 -2q-76 0 -161.5 40t-149 112.5t-98.5 172t-35 275.5t133.5 328.5t333.5 152.5t314 -153.5t114 -413.5q-20 -23 -137 -47.5t-276 -24.5t-337 17q30 -220 146.5 -269
t165.5 -49q79 0 166.5 52t154.5 124l101 -100q-76 -84 -161 -132t-141.5 -66.5t-132.5 -18.5zM477 1133v253h141v-253h-141zM279 1133v253h139v-253h-139z" />
    <glyph glyph-name="igrave" unicode="&#xec;" horiz-adv-x="593" 
d="M0 1298l63 127l306 -221l-66 -129zM113 -2v1081h141v-1081h-141z" />
    <glyph glyph-name="iacute" unicode="&#xed;" horiz-adv-x="593" 
d="M0 1204l303 221l66 -127l-293 -217zM113 -2v1081h141v-1081h-141z" />
    <glyph glyph-name="icircumflex" unicode="&#xee;" horiz-adv-x="710" 
d="M0 1104l215 258h51l219 -270l-92 -50l-153 189l-166 -201zM164 -2v1081h141v-1081h-141z" />
    <glyph glyph-name="idieresis" unicode="&#xef;" horiz-adv-x="565" 
d="M201 1112v256h139v-256h-139zM0 1112v256h139v-256h-139zM98 -2v1081h144v-1081h-144z" />
    <glyph glyph-name="eth" unicode="&#xf0;" horiz-adv-x="1169" 
d="M682 852q-86 78 -218 78t-226.5 -103.5t-94.5 -263.5v-55q0 -160 94.5 -263.5t235.5 -103.5t232.5 99.5t95.5 259.5q0 168 -119 352zM944 563v-55q0 -221 -133 -365.5t-338.5 -144.5t-339 144.5t-133.5 365.5v55q0 223 134 365.5t339 142.5q20 0 31 -2q-45 45 -123 113
l-182 -95l-68 123l129 66l-129 88l68 137q2 -2 61 -40t148 -107l270 139l65 -127l-219 -113q171 -157 273 -313q147 -147 147 -377z" />
    <glyph glyph-name="ntilde" unicode="&#xf1;" horiz-adv-x="991" 
d="M590 1141q-94 78 -104 78t-37 -27q-59 -55 -130 -55h-4q-47 0 -93 31.5t-95 72.5q81 39 117 59q16 -10 36.5 -26.5t39.5 -16.5t42 23q55 57 116 57t112 -34.5t96 -79.5zM141 1040q143 39 240 39t188 -41q136 -69 197 -207v-831h-141l-2 805q-10 18 -38 49.5t-80 57.5
t-134 26t-230 -49v-889h-141v1079h141v-39z" />
    <glyph glyph-name="ograve" unicode="&#xf2;" horiz-adv-x="1179" 
d="M268 1360l101 102l295 -217l-64 -127zM236.5 841q-95.5 -103 -95.5 -270v-55q0 -164 96 -267.5t240 -103.5t239 105.5t95 265.5v55q0 163 -94 268t-240 105q-145 0 -240.5 -103zM477.5 2q-206.5 0 -342 146.5t-135.5 367.5v55q0 223 135 369.5t342.5 146.5t342 -146
t134.5 -370v-55q0 -222 -135 -368t-341.5 -146z" />
    <glyph glyph-name="oacute" unicode="&#xf3;" horiz-adv-x="1179" 
d="M268 1233l332 242l64 -127l-297 -222zM236.5 841q-95.5 -103 -95.5 -270v-55q0 -164 96 -267.5t240 -103.5t239 105.5t95 265.5v55q0 163 -94 268t-240 105q-145 0 -240.5 -103zM477.5 2q-206.5 0 -342 146.5t-135.5 367.5v55q0 223 135 369.5t342.5 146.5t342 -146
t134.5 -370v-55q0 -222 -135 -368t-341.5 -146z" />
    <glyph glyph-name="ocircumflex" unicode="&#xf4;" horiz-adv-x="1179" 
d="M236.5 841q-95.5 -103 -95.5 -270v-55q0 -164 96 -267.5t240 -103.5t239 105.5t95 265.5v55q0 163 -94 268t-240 105q-145 0 -240.5 -103zM477.5 2q-206.5 0 -342 146.5t-135.5 367.5v55q0 223 135 369.5t342.5 146.5t342 -146t134.5 -370v-55q0 -222 -135 -368
t-341.5 -146zM512 1434l221 -267l-74 -75l-172 211l-168 -203l-92 53l232 281h53z" />
    <glyph glyph-name="otilde" unicode="&#xf5;" horiz-adv-x="1179" 
d="M236.5 841q-95.5 -103 -95.5 -270v-55q0 -164 96 -267.5t240 -103.5t239 105.5t95 265.5v55q0 163 -94 268t-240 105q-145 0 -240.5 -103zM477.5 2q-206.5 0 -342 146.5t-135.5 367.5v55q0 223 135 369.5t342.5 146.5t342 -146t134.5 -370v-55q0 -222 -135 -368
t-341.5 -146zM573 1251q-21 0 -51 -26q-55 -57 -127 -58h-2q-75 0 -123.5 38t-56.5 44l92 84q23 -23 50.5 -41t46 -18t47.5 24q57 57 126 60q47 -4 94.5 -37t69.5 -55l-61 -80q-84 65 -105 65z" />
    <glyph glyph-name="odieresis" unicode="&#xf6;" horiz-adv-x="1179" 
d="M510 1135v260h141v-260h-141zM299 1135v260h143v-260h-143zM236.5 841q-95.5 -103 -95.5 -270v-55q0 -164 96 -267.5t240 -103.5t239 105.5t95 265.5v55q0 163 -94 268t-240 105q-145 0 -240.5 -103zM477.5 2q-206.5 0 -342 146.5t-135.5 367.5v55q0 223 135 369.5
t342.5 146.5t342 -146t134.5 -370v-55q0 -222 -135 -368t-341.5 -146z" />
    <glyph glyph-name="divide" unicode="&#xf7;" horiz-adv-x="1409" 
d="M0 475v143h1184v-143h-1184zM537 2v367h139v-367h-139zM537 711v364h139v-364h-139z" />
    <glyph glyph-name="oslash" unicode="&#xf8;" horiz-adv-x="1363" 
d="M797 868q-87 70 -216 70q-130 0 -224.5 -104t-94.5 -267v-55q0 -88 29 -162zM928 512v55q0 101 -43 189l-512 -527q92 -88 230 -88t231.5 104.5t93.5 266.5zM1071 567v-55q0 -221 -134.5 -366.5t-332.5 -145.5t-332 127l-172 -176l-100 100l186 191q-66 115 -65 270v55
q0 220 133 366t342 146q172 0 301 -108l143 147l99 -100l-150 -154q82 -128 82 -297z" />
    <glyph glyph-name="ugrave" unicode="&#xf9;" horiz-adv-x="991" 
d="M195 1264l65 129l309 -230l-65 -127zM0 1079h141v-805q83 -133 256 -133q70 0 228 47v891h141v-1079h-141v37q-388 -117 -503.5 33t-121.5 178v831z" />
    <glyph glyph-name="uacute" unicode="&#xfa;" horiz-adv-x="991" 
d="M250 1163l289 217l104 -104l-317 -234zM0 1079h141v-805q83 -133 256 -133q70 0 228 47v891h141v-1079h-141v37q-388 -117 -503.5 33t-121.5 178v831z" />
    <glyph glyph-name="ucircumflex" unicode="&#xfb;" horiz-adv-x="991" 
d="M147 1133l224 276h55l217 -260l-72 -76l-172 207l-108 -137q-16 -16 -26.5 -32.5t-24.5 -33.5zM0 1079h141v-805q83 -133 256 -133q70 0 228 47v891h141v-1079h-141v37q-388 -117 -503.5 33t-121.5 178v831z" />
    <glyph glyph-name="udieresis" unicode="&#xfc;" horiz-adv-x="991" 
d="M211 1075v258h143v-258h-143zM416 1075v258h143v-258h-143zM0 1079h141v-805q83 -133 256 -133q70 0 228 47v891h141v-1079h-141v37q-388 -117 -503.5 33t-121.5 178v831z" />
    <glyph glyph-name="yacute" unicode="&#xfd;" horiz-adv-x="1189" 
d="M272 1141l306 223l65 -127l-293 -213zM82 -322q135 0 313 388l-395 974l127 62l346 -862l363 862l129 -62q-154 -360 -266.5 -639.5t-210 -471t-192.5 -291t-214 -99.5v139z" />
    <glyph glyph-name="thorn" unicode="&#xfe;" horiz-adv-x="1064" 
d="M400.5 229q115.5 30 189.5 88q108 104 108 272q0 169 -98 247q-88 65 -273 65q-85 0 -186 -22v-678q10 -2 77 -2t182.5 30zM356 1044q205 0 328 -96q156 -118 156 -358t-158 -377q-181 -156 -508 -156q-23 0 -33 2v-462h-141v1937h141v-504q143 14 215 14z" />
    <glyph glyph-name="ydieresis" unicode="&#xff;" horiz-adv-x="1189" 
d="M287 1059v254h141v-254h-141zM487 1059v254h142v-254h-142zM82 -324q134 0 313 390l-395 974l127 62l346 -862l363 862l129 -62q-154 -360 -266.5 -640.5t-210 -472t-192.5 -291t-214 -99.5v139z" />
    <glyph glyph-name="dotlessi" unicode="&#x131;" horiz-adv-x="368" 
d="M0 -2v1081h143v-1081h-143z" />
    <glyph glyph-name="Lslash" unicode="&#x141;" horiz-adv-x="1323" 
d="M229 -2v598l-172 -55l-57 135l229 74v751h146v-704l491 159l4 -151l-495 -162v-498h723v-147h-869z" />
    <glyph glyph-name="lslash" unicode="&#x142;" horiz-adv-x="888" 
d="M262 -2v616l-194 -108l-68 125l262 145v676h139v-598l199 111l64 -127l-263 -146v-694h-139z" />
    <glyph glyph-name="OE" unicode="&#x152;" horiz-adv-x="2308" 
d="M288.5 1193q-143.5 -159 -143.5 -405v-77q0 -244 143 -402.5t361 -158.5t360 149.5t150 386.5v102q0 246 -143.5 405t-363.5 159t-363.5 -159zM1159 0v248q-88 -117 -218.5 -180.5t-280.5 -63.5q-292 0 -476 199.5t-184 507.5v77q0 306 183 507.5t477 201.5
q150 0 280.5 -64.5t218.5 -181.5v250h772v-145h-624v-557h544v-148h-544v-506h776v-145h-924z" />
    <glyph glyph-name="oe" unicode="&#x153;" horiz-adv-x="1935" 
d="M1255 584q156 0 314 14q-14 156 -88 247t-199 91t-215.5 -93t-108.5 -243q141 -16 297 -16zM232.5 829q-93.5 -103 -93.5 -264v-53q0 -160 93.5 -264.5t237.5 -104.5t237.5 104.5t93.5 264.5v53q0 161 -93.5 264t-237.5 103t-237.5 -103zM488 2q-221 0 -354.5 144.5
t-133.5 365.5v53q0 223 134 365.5t337 142.5q137 0 243.5 -66.5t166.5 -179.5q59 117 165 184.5t222 67.5q215 0 328.5 -153.5t113.5 -413.5q-20 -23 -137 -47.5t-276 -24.5t-336 17q31 -220 146.5 -269t164.5 -49q79 0 166.5 52t154.5 124l101 -100q-76 -84 -194 -150.5
t-233 -66.5q-116 0 -221.5 67.5t-164.5 184.5q-59 -115 -166 -181.5t-227 -66.5z" />
    <glyph glyph-name="Scaron" unicode="&#x160;" horiz-adv-x="1185" 
d="M813 457q0 66 -57 123q-98 100 -340 100q-105 0 -190 36t-130 81q-96 96 -96 257q0 315 248.5 404.5t707.5 -20.5l-61 -146q-343 93 -546.5 33.5t-203.5 -276.5q0 -141 93.5 -179.5t154.5 -41.5l23 -1q305 0 446 -147q96 -101 96 -223q0 -323 -249.5 -415t-708.5 19
l61 146q320 -122 478.5 -69.5t216 129.5t57.5 190zM481 1690l258 272l95 -94l-318 -334h-59l-328 336l90 92z" />
    <glyph glyph-name="scaron" unicode="&#x161;" horiz-adv-x="933" 
d="M309 471q-84 0 -143.5 27.5t-91.5 60.5h2q-76 74 -76 193q0 236 185.5 299t521.5 -31l-62 -141q-209 91 -317.5 61.5t-148.5 -76.5t-40 -107t33 -98h-2q28 -28 70 -38q41 -9 67 -7q221 0 326 -110q74 -74 74 -184t-52.5 -185.5t-192.5 -126t-462 50.5l61 142
q226 -106 331.5 -65.5t139 89.5t33.5 97t-33 86q-63 63 -223 63zM84 1389l63 65l203 -207l105 111q27 25 50 49.5t44 46.5l65 -63l-241 -254h-43z" />
    <glyph glyph-name="Ydieresis" unicode="&#x178;" horiz-adv-x="1474" 
d="M449 1522v260h147v-260h-147zM653 1522v260h148v-260h-148zM696 0h-145l2 692l-553 750l133 67l492 -669l493 669l131 -67l-553 -750v-692z" />
    <glyph glyph-name="Zcaron" unicode="&#x17d;" horiz-adv-x="1431" 
d="M16 1354v145h1147l43 -84l-977 -1270h959v-145h-1147l-41 86l975 1268h-959zM256 1872l88 88l262 -266l115 121q35 39 71.5 74.5t73.5 76.5l90 -92l-317 -334h-59z" />
    <glyph glyph-name="zcaron" unicode="&#x17e;" horiz-adv-x="1105" 
d="M174 1413l70 70l202 -209l195 203q23 -12 43.5 -24.5t42.5 -22.5l-256 -275h-47zM16 936v141h822l43 -82l-658 -852h641v-143h-825l-39 84l655 852h-639z" />
    <glyph glyph-name="florin" unicode="&#x192;" horiz-adv-x="851" 
d="M468 1364q-30 0 -48 -14v-191h205v-143h-205v-776q0 -84 -60 -154v2q-76 -84 -286 -84v141q181 0 191.5 43.5t10.5 59.5v768h-276v143h276v189q0 71 57 113t138 42t156 -12l-4 -150q-29 3 -54 9t-48 10t-53 4z" />
    <glyph glyph-name="circumflex" unicode="&#x2c6;" horiz-adv-x="899" 
d="M0 1137l305 321h60l309 -323l-84 -86l-252 262q-59 -66 -126 -131.5t-126 -130.5z" />
    <glyph glyph-name="caron" unicode="&#x2c7;" horiz-adv-x="901" 
d="M340 1237q179 193 248 266l88 -88l-305 -323h-56l-315 323l82 84z" />
    <glyph glyph-name="breve" unicode="&#x2d8;" horiz-adv-x="813" 
d="M285 1239q111 0 180 207l123 -4l-6 -26q-32 -137 -113 -227.5t-186 -90.5q-106 0 -181.5 91t-97.5 229l-4 26l127 2q0 -32 25.5 -89t55.5 -87.5t77 -30.5z" />
    <glyph glyph-name="dotaccent" unicode="&#x2d9;" horiz-adv-x="366" 
d="M0 1141v307h141v-307h-141z" />
    <glyph glyph-name="ring" unicode="&#x2da;" horiz-adv-x="737" 
d="M255 1368q-56 0 -95 -39t-39 -94t39 -95t95 -40t96 40t40 95t-40 94t-96 39zM76 1413q76 76 180 76t180 -76t76 -181.5t-77 -179t-179 -73.5t-179 73.5t-77 179t76 181.5z" />
    <glyph glyph-name="ogonek" unicode="&#x2db;" horiz-adv-x="737" 
d="M125 -136q0 -20 14 -54q34 -71 127.5 -41t179.5 102l66 -125q-92 -61 -171 -86t-118 -25t-69 11q-78 23 -125 110q-29 68 -29 140t90.5 129t212.5 69l2 -123q-12 -2 -81 -13t-91 -60q-8 -14 -8 -34z" />
    <glyph glyph-name="tilde" unicode="&#x2dc;" horiz-adv-x="952" 
d="M225 1171h-2q-102 0 -223 121l86 84q27 -20 66 -49t71 -33q51 0 96 45q82 82 174 82t157 -54t77 -64l-88 -86q-99 78 -141 83q-49 -2 -90 -47q-84 -82 -183 -82z" />
    <glyph glyph-name="hungarumlaut" unicode="&#x2dd;" horiz-adv-x="829" 
d="M242 1282l262 272l100 -98l-262 -274zM0 1282l262 272l98 -98l-262 -274z" />
    <glyph glyph-name="endash" unicode="&#x2013;" horiz-adv-x="1075" 
d="M0 608v142h850v-142h-850z" />
    <glyph glyph-name="emdash" unicode="&#x2014;" horiz-adv-x="1378" 
d="M0 608v142h1153v-142h-1153z" />
    <glyph glyph-name="quoteleft" unicode="&#x2018;" horiz-adv-x="495" 
d="M0 1473l147 4l123 -375l-147 -4z" />
    <glyph glyph-name="quoteright" unicode="&#x2019;" horiz-adv-x="495" 
d="M0 1102l123 375l147 -4l-127 -388z" />
    <glyph glyph-name="quotesinglbase" unicode="&#x201a;" horiz-adv-x="393" 
d="M0 -111l27 377l141 -2l-27 -385z" />
    <glyph glyph-name="quotedblleft" unicode="&#x201c;" horiz-adv-x="702" 
d="M477 1116l-123 -4l-118 361l124 4zM244 1116l-125 -4l-119 361l125 4z" />
    <glyph glyph-name="quotedblright" unicode="&#x201d;" horiz-adv-x="702" 
d="M0 1116l119 361q33 0 63.5 -2t61.5 -2l-121 -373zM236 1116l118 361q33 0 62.5 -2t60.5 -2l-119 -373z" />
    <glyph glyph-name="quotedblbase" unicode="&#x201e;" horiz-adv-x="581" 
d="M236 250l120 -2l-26 -369l-127 8zM29 250l121 -2l-27 -371l-123 10z" />
    <glyph glyph-name="dagger" unicode="&#x2020;" horiz-adv-x="1308" 
d="M471 -74v979l-463 -35l-8 140l471 37v419h141v-407l471 39v-146l-471 -37v-989h-141z" />
    <glyph glyph-name="daggerdbl" unicode="&#x2021;" horiz-adv-x="1308" 
d="M471 -74v453l-463 -35l-8 139l471 37v385l-463 -35l-8 140l471 37v419h141v-407l471 39v-146l-471 -37v-383l471 37v-145l-471 -35v-463h-141z" />
    <glyph glyph-name="bullet" unicode="&#x2022;" horiz-adv-x="428" 
d="M203 681q0 -42 -29 -72.5t-72 -30.5t-72.5 30.5t-29.5 72.5t29.5 70.5t72.5 28.5t72 -28.5t29 -70.5z" />
    <glyph glyph-name="ellipsis" unicode="&#x2026;" horiz-adv-x="851" 
d="M502 -2v221h125v-221h-125zM252 -2v221h123v-221h-123zM0 -2v221h123v-221h-123z" />
    <glyph glyph-name="perthousand" unicode="&#x2030;" horiz-adv-x="2338" 
d="M309 45l695 1430l124 -64l-694 -1423zM1794 567q-43 0 -79 -20.5t-61.5 -53t-41 -73.5t-15.5 -80t15.5 -79t41 -72.5t61.5 -53t79 -20.5t79 20.5t61.5 53t41 72.5t15.5 79t-15.5 80t-41 73.5t-61.5 53t-79 20.5zM1569.5 579q94.5 111 225.5 111t225 -110t94 -240.5
t-94.5 -239t-224.5 -108.5t-225 109t-95 238t94.5 240zM1079 567q-43 0 -78.5 -20.5t-61.5 -53t-41 -73.5t-15 -80t15 -79t41 -72.5t61.5 -53t78.5 -20.5t79 20.5t61.5 53t41 72.5t15.5 79t-15.5 80t-41 73.5t-61.5 53t-79 20.5zM853.5 579.5q91.5 110.5 224.5 110.5
q132 0 226.5 -111t94.5 -240t-95 -238t-226 -109q-132 0 -224 108.5t-92 238.5t91.5 240.5zM179.5 1247.5q-58.5 -73.5 -58.5 -155.5q0 -83 58.5 -155.5t141.5 -72.5t142 72t59 156q0 85 -59 157t-142 72t-141.5 -73.5zM95.5 852q-95.5 109 -95.5 239q0 131 94.5 243
t228 112t228 -112t94.5 -243t-95.5 -239.5t-227 -108.5t-227 109z" />
    <glyph glyph-name="guilsinglleft" unicode="&#x2039;" horiz-adv-x="759" 
d="M0 522v66l449 364l86 -86l-381 -309l368 -305l-57 -109z" />
    <glyph glyph-name="guilsinglright" unicode="&#x203a;" horiz-adv-x="759" 
d="M0 244l379 315q-28 24 -72 55q-74 61 -151.5 123t-145.5 119q16 29 29.5 55.5t30.5 55.5l465 -379v-66l-449 -366z" />
    <glyph glyph-name="fraction" unicode="&#x2044;" horiz-adv-x="1339" 
d="M0 47l985 1423l129 -67l-991 -1426z" />
    <glyph glyph-name="Euro" unicode="&#x20ac;" horiz-adv-x="1265" 
d="M0 508v143h223v109h-223v143h238q43 246 190 375q101 85 196 102t129 15l287 -29v-143l-262 28q-78 7 -146.5 -19t-109.5 -63q-102 -90 -137 -266h438v-143h-456v-109h456v-143h-442q33 -190 141 -283q90 -80 122 -80h134l262 25v-141l-258 -25l-34 -2q-116 0 -195.5 39
t-124.5 78q-154 135 -192 389h-236z" />
    <glyph glyph-name="trademark" unicode="&#x2122;" horiz-adv-x="1486" 
d="M696 696h-125v650h-215v-650h-123v650h-233v122h594v-30l57 30l262 -303l261 291l88 -2v-758h-119v545l-201 -225h-57l-189 213v-533z" />
    <glyph glyph-name="minus" unicode="&#x2212;" horiz-adv-x="919" 
d="M0 483v142h694v-142h-694z" />
    <glyph glyph-name="NULL" horiz-adv-x="0" 
 />
    </font>
</defs>
</svg>
