<?xml version="1.0" standalone="no"?>
<!DOCTYPE svg PUBLIC "-//W3C//DTD SVG 1.1//EN" "http://www.w3.org/Graphics/SVG/1.1/DTD/svg11.dtd" >
<svg xmlns="http://www.w3.org/2000/svg">
<metadata>
Created by FontPrep 20130207 at Tue Sep 22 18:33:45 2015
 By Hannah Lucy Woodward
</metadata>
<defs>
<font id="82062e95b40544259d134f58b51fc4ef" horiz-adv-x='1024' >
  <font-face 
    font-family="Bakersfield-Light"
    font-weight="300"
    font-stretch="normal"
    units-per-em="2048"
    panose-1="0 0 0 0 0 0 0 0 0 0"
    ascent="1536"
    descent="-512"
    x-height="1077"
    cap-height="1499"
    bbox="-225 -467 2245 1946"
    underline-thickness="102"
    underline-position="-102"
    unicode-range="U+0020-FB04"
  />
<missing-glyph horiz-adv-x="614" 
 />
    <glyph glyph-name="ff" unicode="ff" horiz-adv-x="1456" 
d="M725 0v1022h-492v-1022h-55v1022h-178v57h178v219q37 294 506 285v-55q-202 -4 -314 -51.5t-137 -176.5v-221h492v219q37 294 506 285v-55q-202 -4 -314 -51t-137 -177v-221h451v-57h-451v-1022h-55z" />
    <glyph glyph-name="fi" unicode="fi" horiz-adv-x="966" 
d="M684 0v1022h-451v-1022h-55v1022h-178v57h178v219q37 294 506 285v-55q-202 -4 -314 -51.5t-137 -176.5v-221h508v-1079h-57z" />
    <glyph glyph-name="fl" unicode="fl" horiz-adv-x="1179" 
d="M178 0v1024h-178v55h178v219q15 147 144.5 218t341.5 67h290v-1583h-57v1528h-233q-286 0 -353 -81t-78 -147v-221h451v-55h-451v-1024h-55z" />
    <glyph glyph-name="ffi" unicode="ffi" horiz-adv-x="1513" 
d="M1231 0v1022h-451v-1022h-55v1022h-492v-1022h-55v1022h-178v57h178v219q37 294 506 285v-55q-202 -4 -314 -51.5t-137 -176.5v-221h492v219q37 294 506 285v-55q-202 -4 -314 -51t-137 -177v-221h508v-1079h-57z" />
    <glyph glyph-name="ffl" unicode="ffl" horiz-adv-x="1513" 
d="M780 1079h451v449q-202 -4 -315 -51.5t-136 -176.5v-221zM1288 1583v-1583h-57v1022h-451v-1022h-55v1022h-492v-1022h-55v1022h-178v57h178v219q37 294 506 285v-55q-202 -4 -314 -51.5t-137 -176.5v-221h492v219q37 294 506 285h57z" />
    <glyph glyph-name="fj" unicode="fj" horiz-adv-x="966" 
d="M362 -467v57h127q63 0 105 43t60 110t25 129t6 108.5t-1 48.5v993h-451v-1022h-55v1022h-178v57h178v219q37 294 506 285v-55q-202 -4 -314 -51.5t-137 -176.5v-221h506v-686q0 -686 -112 -805q-51 -54 -138 -55h-127z" />
    <glyph glyph-name="ft" unicode="ft" horiz-adv-x="1142" 
d="M684 231v791h-451v-1022h-55v1022h-178v57h178v219q37 294 506 285v-55q-202 -4 -314 -51.5t-137 -176.5v-221h451v207h55v-207h179v-57h-179v-791q8 -176 179 -176v-55q-111 4 -172.5 62.5t-61.5 168.5z" />
    <glyph glyph-name="tt" unicode="tt" horiz-adv-x="983" 
d="M94 231v791h-94v57h94v207h56v-207h374v207h56v-207h178v-57h-178v-791q8 -176 178 -176v-55q-111 4 -172.5 62.5t-61.5 168.5v791h-374v-791q8 -176 178 -176v-55q-111 4 -172.5 62.5t-61.5 168.5z" />
    <glyph glyph-name="ffj" unicode="ffj" horiz-adv-x="1513" 
d="M909 -467v57h127q62 0 104 43t60.5 110t25.5 129t6 108.5t-1 48.5v993h-451v-1022h-55v1022h-492v-1022h-55v1022h-178v57h178v219q37 294 506 285v-55q-202 -4 -314 -51.5t-137 -176.5v-221h492v219q37 294 506 285v-55q-202 -4 -314 -51t-137 -177v-221h506v-686
q0 -686 -112 -805q-51 -54 -138 -55h-127z" />
    <glyph glyph-name="fft" unicode="fft" horiz-adv-x="1689" 
d="M1231 231v791h-451v-1022h-55v1022h-492v-1022h-55v1022h-178v57h178v219q37 294 506 285v-55q-202 -4 -314 -51.5t-137 -176.5v-221h492v219q37 294 506 285v-55q-202 -4 -314 -51t-137 -177v-221h451v207h55v-207h178v-57h-178v-791q8 -176 178 -176v-55
q-111 4 -172 62.5t-61 168.5z" />
    <glyph glyph-name="rf" unicode="rf" horiz-adv-x="1208" 
d="M477 1022q-300 0 -422 -311v-711h-55v1079h55v-248q92 164 213 206t209 42v219q37 294 506 285v-55q-202 -4 -314 -51.5t-137 -176.5v-221h451v-57h-451v-1022h-55v1022z" />
    <glyph glyph-name=".notdef" horiz-adv-x="614" 
 />
    <glyph glyph-name=".null" horiz-adv-x="0" 
 />
    <glyph glyph-name="nonmarkingreturn" horiz-adv-x="614" 
 />
    <glyph glyph-name="Space" unicode=" " horiz-adv-x="614" 
 />
    <glyph glyph-name="Space" unicode="&#xa0;" horiz-adv-x="614" 
 />
    <glyph glyph-name="exclam" unicode="!" horiz-adv-x="280" 
d="M0 -2v274h55v-274h-55zM0 387v1112h55v-1112h-55z" />
    <glyph glyph-name="quotedbl" unicode="&#x22;" horiz-adv-x="526" 
d="M219 1174l27 313l55 -2l-27 -311h-55zM0 1174l25 313l55 -2l-25 -311h-55z" />
    <glyph glyph-name="numbersign" unicode="#" horiz-adv-x="1579" 
d="M481 545h383l39 346h-381zM0 487v58h424l41 346h-465v57h471l64 539l55 -2l-62 -537h381l62 539l57 -2l-61 -537h387v-57h-393l-41 -346h434v-58h-441l-55 -491l-55 4l55 487h-383l-55 -491l-58 4l56 487h-418z" />
    <glyph glyph-name="dollar" unicode="$" horiz-adv-x="1124" 
d="M840 406q6 102 -60 178h2q-94 104 -305 125l-74 -648l119 -14q121 -14 217 72q101 101 101 287zM380.5 770q35.5 0 47.5 -2l76 653l-135 15q-132 0 -211 -74q-102 -98 -103 -293q0 -131 80 -211q56 -56 133 -72t112.5 -16zM409 713h-32q-95 0 -236 63t-141 288
q0 224 121 339q70 63 136.5 75.5t72.5 12.5h43l137 -16l14 116h56l-15 -123l258 -26l-2 -56l-262 29l-76 -651q229 -20 340 -143q74 -84 74 -109v-106q-4 -100 -36 -187.5t-85 -138.5q-66 -57 -134.5 -73.5t-102.5 -16.5l-142 16l-14 -135l-55 4l14 137l-334 39l2 58
l338 -41l74 643q-10 2 -13 2z" />
    <glyph glyph-name="percent" unicode="%" horiz-adv-x="1587" 
d="M836 321.5q0 -101.5 69 -183t166 -81.5t166.5 82.5t69.5 182t-69.5 182t-166.5 82.5t-166 -81.5t-69 -183zM865.5 542q85.5 101 206.5 101t205.5 -100t84.5 -221t-84.5 -221.5t-205.5 -100.5t-206.5 102t-85.5 220.5t85.5 219.5zM297 1427q-51 0 -95 -24.5t-77 -62
t-51.5 -86t-18.5 -95.5t18.5 -95t51.5 -87t77 -63.5t95 -24.5t94 24.5t76 63.5t51.5 87t18.5 95t-18.5 95.5t-51.5 86t-76 62t-94 24.5zM87 936q-87 102 -87 224t87.5 222.5t208.5 100.5t208.5 -101t87.5 -222q0 -122 -87 -224t-209 -102t-209 102zM305 16l719 1479l51 -22
l-723 -1485z" />
    <glyph glyph-name="ampersand" unicode="&#x26;" horiz-adv-x="1351" 
d="M492 1434q-56 0 -90 -10q-77 -21 -123.5 -98t-22.5 -165q10 -53 52 -106q43 -54 114 -137q25 16 50.5 29.5t57.5 31.5q76 44 126.5 119t31.5 158q-18 84 -79 131t-117 47zM403 842q-346 -241 -346 -467q0 -70 43 -150t135.5 -128t187.5 -48t158 20q64 20 145 67.5
t136 127.5zM1016 616q0 -212 -86 -350l196 -250l-49 -28l-180 229q-123 -161 -313 -207q-74 -18 -144 -18q-129 0 -235.5 56t-159.5 157q-45 77 -45 170q0 261 371 512l-97 119q-20 29 -50.5 76.5t-30.5 135.5t70 179.5t208 91.5q96 0 173 -59.5t95 -137.5
q29 -126 -31 -218.5t-155 -145.5l-98 -60q113 -147 219 -277t221 -278q66 134 66 303h55z" />
    <glyph glyph-name="quotesingle" unicode="'" horiz-adv-x="305" 
d="M0 1174l25 313l55 -2l-25 -311h-55z" />
    <glyph glyph-name="parenleft" unicode="(" horiz-adv-x="798" 
d="M573 -465q-139 0 -245.5 88t-217 310t-110.5 645q0 424 107.5 631.5t215 289.5t250.5 82v-57q-129 0 -226 -78t-161.5 -209t-97.5 -302t-33 -357.5t33 -363.5t97.5 -315.5t161.5 -222.5t226 -84v-57z" />
    <glyph glyph-name="parenright" unicode=")" horiz-adv-x="798" 
d="M0 -465v57q129 0 226.5 84t162 222.5t97 315.5t32.5 363.5t-32.5 357.5t-97 302t-162 209t-226.5 78v57q143 0 250.5 -82t215 -288t107.5 -633t-110.5 -647t-218 -308t-244.5 -88z" />
    <glyph glyph-name="asterisk" unicode="*" horiz-adv-x="720" 
d="M219 1479h55v-181l199 68l23 -49l-201 -70l149 -162l-38 -38l-158 172l-156 -172l-45 30l154 170q-138 45 -201 70l23 49l196 -70v183z" />
    <glyph glyph-name="plus" unicode="+" horiz-adv-x="1304" 
d="M512 0v512h-512v55h512v512h57v-512h510v-55h-510v-512h-57z" />
    <glyph glyph-name="comma" unicode="," horiz-adv-x="305" 
d="M0 -207l25 311h55l-25 -315z" />
    <glyph glyph-name="hyphen" unicode="-" horiz-adv-x="806" 
d="M0 555v55h582v-55h-582z" />
    <glyph glyph-name="period" unicode="." horiz-adv-x="280" 
d="M0 4v242h55v-242h-55z" />
    <glyph glyph-name="slash" unicode="/" horiz-adv-x="1026" 
d="M0 2l750 1485l51 -25l-754 -1489z" />
    <glyph glyph-name="zero" unicode="0" horiz-adv-x="1185" 
d="M479 1436q-92 0 -170 -52.5t-134 -144.5t-88 -219t-32 -276.5t32 -276.5t88 -219t134 -143.5t170 -51.5t170 51.5t134.5 143.5t88 219t31.5 276.5t-31.5 276.5t-88 219t-134.5 144.5t-170 52.5zM479.5 -4q-104.5 0 -192.5 56.5t-151.5 155.5t-99.5 236.5t-36 299t36 299
t99.5 237.5t151.5 155.5t192.5 55.5t193.5 -55.5t152.5 -155.5t99.5 -237.5t36 -299t-36 -299t-99.5 -236.5t-152.5 -155.5t-193.5 -56.5z" />
    <glyph glyph-name="one" unicode="1" horiz-adv-x="659" 
d="M379 0v1378q-165 -178 -379 -178v57q156 0 249 78t119 114l25 36l41 -2v-1483h-55z" />
    <glyph glyph-name="two" unicode="2" horiz-adv-x="1091" 
d="M2 1092q24 174 143 283.5t297 109.5t300 -132.5t122 -338.5q0 -106 -76.5 -229t-171.5 -218l-516 -510h764v-57h-846l-18 37l27 26q72 72 263.5 261t309.5 307q118 117 180 266q25 63 29 115q0 182 -107 300t-261 118q-153 0 -255 -93.5t-129 -251.5l-2 -26l-55 2z" />
    <glyph glyph-name="three" unicode="3" horiz-adv-x="1030" 
d="M313 1485h47q173 0 287.5 -103t114.5 -264q0 -121 -63.5 -210t-172.5 -130q127 -41 203 -142t76 -237q0 -178 -124 -292.5t-319 -114.5h-51q-172 0 -311 108l39 41q123 -94 272 -94h51q167 0 277.5 99t110.5 249t-102 247.5t-269 107.5h-170v55h166q143 4 236.5 93.5
t93.5 222.5t-99 221t-246 88h-47q-158 0 -272 -111l-39 39q127 127 311 127z" />
    <glyph glyph-name="four" unicode="4" horiz-adv-x="1267" 
d="M750 461v913l-664 -913h664zM750 0v406h-732l-18 34l764 1051l41 -18v-1012h237v-55h-237v-406h-55z" />
    <glyph glyph-name="five" unicode="5" horiz-adv-x="1093" 
d="M6 0v57h313q123 0 217.5 6.5t155.5 45.5v-3q63 41 91 127t28 238q0 96 -61 162q-81 72 -225 82l-27 2h-498l150 768h718v-55h-671q-35 -172 -64 -329t-63 -329h428q100 0 175 -29.5t115 -68.5q80 -80 80 -203q0 -315 -147 -410q-70 -41 -168 -51t-219 -10h-328z" />
    <glyph glyph-name="six" unicode="6" horiz-adv-x="1155" 
d="M141 786q-84 -185 -84 -343t121 -272t287.5 -114t286.5 106t120 259t-119.5 258.5t-287.5 105.5h-324zM136 896.5q136 232.5 264 370.5t174.5 181t48.5 45l39 -39q-2 -2 -54.5 -51t-189 -198.5t-248.5 -360.5h295q194 0 329.5 -123.5t135.5 -297.5t-137 -298.5
t-329 -124.5t-328 130.5t-136 331.5q0 202 136 434.5z" />
    <glyph glyph-name="seven" unicode="7" horiz-adv-x="1146" 
d="M0 1430v55h922l-570 -1491l-51 22l543 1414h-844z" />
    <glyph glyph-name="eight" unicode="8" horiz-adv-x="1112" 
d="M422 1430q-139 0 -231.5 -88.5t-92.5 -224t90.5 -224t231.5 -88.5h59q133 4 222.5 93.5t89.5 221.5t-93 221t-231 89h-45zM403 750q-155 -8 -251.5 -106t-96.5 -247q0 -150 103.5 -250t261.5 -100h49q156 0 259 99.5t103 248.5t-96 247t-252 108h-80zM420 -8
q-183 0 -301.5 114.5t-118.5 292.5q0 135 71.5 236.5t192.5 142.5q-100 41 -160.5 130.5t-60.5 189.5q0 181 107.5 284t271.5 103h45q164 0 271.5 -104t107.5 -263q0 -121 -60.5 -210t-162.5 -130q121 -41 192.5 -142t71.5 -237q0 -177 -118.5 -292t-299.5 -115h-49z" />
    <glyph glyph-name="nine" unicode="9" horiz-adv-x="1155" 
d="M784 698q88 185 88 346t-120 273.5t-287.5 112.5t-287.5 -109t-120 -258.5t120.5 -257t287.5 -107.5h319zM465 641q-191 0 -328 124.5t-137 298.5t135.5 297.5t328.5 123.5t329.5 -129.5t136.5 -311.5q0 -224 -161.5 -497.5t-310.5 -413t-151 -141.5l-39 39q0 2 52.5 50
t189.5 200.5t246 359.5h-291z" />
    <glyph glyph-name="colon" unicode=":" horiz-adv-x="280" 
d="M0 31v252h55v-252h-55zM0 827v252h55v-252h-55z" />
    <glyph glyph-name="semicolon" unicode=";" horiz-adv-x="432" 
d="M76 827v252h57v-252h-57zM0 -8l158 268l49 -27l-158 -268z" />
    <glyph glyph-name="less" unicode="&#x3c;" horiz-adv-x="972" 
d="M0 520v33l719 518l29 -49l-676 -485l676 -488l-29 -47z" />
    <glyph glyph-name="equal" unicode="=" horiz-adv-x="1155" 
d="M0 766v55h930v-55h-930zM0 326v55h930v-55h-930z" />
    <glyph glyph-name="greater" unicode="&#x3e;" horiz-adv-x="972" 
d="M676 567q-58 43 -676 486l27 51l721 -518v-33l-719 -518l-27 47z" />
    <glyph glyph-name="question" unicode="?" horiz-adv-x="929" 
d="M217 0v227h57v-227h-57zM217 395q0 142 53 250q33 61 80 109.5t96.5 92.5t95.5 89t79 100q40 77 25.5 166t-75.5 150q-82 78 -211 78t-216 -79t-87 -233h-57q0 172 101.5 269.5t256.5 97.5q156 0 251 -94t96 -240q0 -84 -46.5 -151.5t-109 -129t-127 -122t-94.5 -116.5
q-54 -103 -54 -237h-57z" />
    <glyph glyph-name="at" unicode="@" horiz-adv-x="1624" 
d="M769 1042q-150 0 -248.5 -86t-113.5 -205q-14 -118 1.5 -182.5t50.5 -105.5q80 -86 211 -86q227 0 313 174l35 280q-27 98 -96.5 154.5t-152.5 56.5zM671 53q106 0 199 29l4 -59q-92 -25 -206 -25t-240.5 58.5t-221.5 159.5t-150.5 237.5t-55.5 290.5t55.5 290.5
t150.5 238t222 160t271 58.5t271.5 -58.5t222.5 -160t150.5 -237.5t55.5 -291t-59.5 -285.5t-188.5 -130.5q-128 0 -188 47l8 69q-102 -123 -301 -122q-158 0 -252 102q-76 91 -74 179.5t2 129.5q20 159 135.5 263t272.5 104q186 0 274 -180l10 84l58 -3l-72 -593
q67 -25 123 -25q57 0 97 39t69.5 111t29.5 213q0 140 -51 265.5t-138 219.5t-205 148.5t-251 54.5t-249.5 -54.5t-204.5 -148.5t-138.5 -219t-50.5 -268.5t50.5 -269.5t138.5 -219t204.5 -147.5t222.5 -54.5z" />
    <glyph glyph-name="A" unicode="A" 
d="M358 737h541l-264 664zM0 16l612 1483h45l592 -1483l-51 -24l-276 688h-586l-283 -686z" />
    <glyph glyph-name="B" unicode="B" horiz-adv-x="1064" 
d="M55 1444v-699h463q75 60 114.5 194t53.5 261q0 90 -43 131q-59 65 -146 86t-123 24l-36 3h-283zM55 57h449q122 6 200 83t78 247t-95.5 231.5t-192.5 71.5h-439v-633zM0 0v1499h338q122 0 214.5 -41t133.5 -86h-2q66 -73 56 -180q-15 -177 -59.5 -291.5t-98.5 -171.5
q110 -34 184 -115t74 -251t-103 -269q-55 -55 -122.5 -74.5t-108.5 -19.5h-506z" />
    <glyph glyph-name="C" unicode="C" horiz-adv-x="1112" 
d="M545 0q-95 0 -192 48t-150 97q-94 98 -148.5 253t-54.5 353.5t54.5 352t148.5 252.5q93 83 185.5 110t125.5 30l33 3h340v-55h-340l-29 -1q-70 -2 -146.5 -40.5t-127.5 -87.5q-188 -178 -188 -564t188 -565q85 -81 165 -104t109 -24l29 -1h340v-57h-342z" />
    <glyph glyph-name="D" unicode="D" horiz-adv-x="1294" 
d="M55 1444v-1387h469l29 1q70 2 264 99t195 595q0 387 -185 563q-85 81 -165 104t-109 24l-29 1h-469zM0 2v1497h524l33 -3q78 -7 165 -48t144 -92q94 -98 148.5 -252t54.5 -449.5t-203 -507.5q-87 -80 -189 -112.5t-151 -32.5h-526z" />
    <glyph glyph-name="E" unicode="E" horiz-adv-x="1107" 
d="M0 2v1497h719v-55h-664v-707h594v-57h-594v-623h828v-55h-883z" />
    <glyph glyph-name="F" unicode="F" horiz-adv-x="974" 
d="M0 0v1501h750v-57h-695v-686h580v-58h-580v-700h-55z" />
    <glyph glyph-name="G" unicode="G" horiz-adv-x="1476" 
d="M651 -2q-141 0 -261 53t-255 201.5t-135 454.5v81q0 308 135 456.5t255 201.5t261 53q201 0 359.5 -110.5t240.5 -307.5l-53 -26q-74 184 -218 285.5t-329 101.5q-255 0 -424.5 -184.5t-169.5 -469.5v-81q0 -285 169.5 -469.5t424.5 -184.5q358 0 537 238v395h-354v55
h411l-2 -469q-201 -274 -592 -274z" />
    <glyph glyph-name="H" unicode="H" horiz-adv-x="1169" 
d="M887 0v680h-830v-680h-57v1499h57v-764h830v764h57v-1499h-57z" />
    <glyph glyph-name="I" unicode="I" horiz-adv-x="282" 
d="M0 0v1499h57v-1499h-57z" />
    <glyph glyph-name="J" unicode="J" horiz-adv-x="751" 
d="M0 55q266 0 379 125q60 64 75 128.5t15 87.5v1103h57v-1079q0 -84 -34.5 -160t-73.5 -121q-66 -66 -174.5 -103.5t-243.5 -37.5v57z" />
    <glyph glyph-name="K" unicode="K" horiz-adv-x="1267" 
d="M55 680v-680h-55v1499h55v-764q158 0 250.5 23t128.5 45q135 172 281.5 352t281.5 352l41 -41l-549 -686l553 -764l-51 -28l-545 755q-126 -63 -391 -63z" />
    <glyph glyph-name="L" unicode="L" horiz-adv-x="1077" 
d="M0 0v1499h55v-1442h797v-57h-852z" />
    <glyph glyph-name="M" unicode="M" horiz-adv-x="1591" 
d="M57 -2h-57v1495l41 18l637 -782l647 784l41 -18v-1497h-57v1405q-484 -584 -617 -744h-30l-605 742v-1403z" />
    <glyph glyph-name="N" unicode="N" 
d="M0 -2v1460l41 17l1149 -1362v1388h59v-1476l-43 -19l-1149 1362v-1370h-57z" />
    <glyph glyph-name="O" unicode="O" horiz-adv-x="1527" 
d="M59 793v-84q0 -285 168.5 -468.5t423.5 -183.5t424.5 184.5t169.5 467.5v84q0 283 -169 467t-425 184t-424 -183t-168 -468zM0 709v84q0 305 135 453.5t255 201.5t332 53t396.5 -200t184.5 -508v-84q0 -309 -184.5 -509t-396.5 -200t-332 53t-255 201.5t-135 454.5z" />
    <glyph glyph-name="P" unicode="P" horiz-adv-x="970" 
d="M57 1444v-696h467q78 47 114 183t46 269q10 80 -41 133h2q-82 92 -272 108l-35 3h-281zM0 0v1501h338q125 0 216 -42t132 -87h-2q66 -74 59 -176q-26 -281 -90.5 -378t-92.5 -112.5t-30 -15.5h-473v-690h-57z" />
    <glyph glyph-name="Q" unicode="Q" horiz-adv-x="1601" 
d="M651 1444q-256 0 -425 -184.5t-169 -468.5v-82q0 -287 169.5 -471.5t424.5 -184.5q154 0 277 68q-100 63 -144.5 125.5t-55.5 85.5l-11 22l55 27q0 -18 54.5 -94t152.5 -133q123 86 194.5 229t71.5 326v82q0 284 -169 468.5t-425 184.5zM0 709v82q0 311 184 510.5
t467 199.5t467.5 -200t184.5 -510v-82q0 -190 -71 -341t-194 -245q143 -66 338 -66v-55q-222 0 -389 86q-147 -92 -312 -92q-308 0 -491.5 201t-183.5 512z" />
    <glyph glyph-name="R" unicode="R" horiz-adv-x="1138" 
d="M55 1444v-694h566q125 94 163 452q0 90 -43 131q-83 92 -268 108l-35 3h-383zM55 0h-55v1501h438q118 0 211.5 -41t134.5 -86q61 -78 56 -178q-26 -264 -90 -363.5t-91.5 -119t-31.5 -19.5h-72l358 -674l-53 -26l-371 700h-434v-694z" />
    <glyph glyph-name="S" unicode="S" horiz-adv-x="1155" 
d="M0 1069q0 596 930 369v-56q-434 102 -654.5 28.5t-220.5 -341.5q0 -117 74 -195q59 -56 134 -72t104 -17l28 -1q301 0 439 -143q57 -57 73.5 -115t16.5 -90q0 -308 -246 -397t-678 22v56q607 -158 737.5 11t130.5 308q-6 97 -73 166q-123 123 -400 123q-103 0 -182.5 34
t-122.5 77q-90 90 -90 233z" />
    <glyph glyph-name="T" unicode="T" horiz-adv-x="1488" 
d="M602 -2v1446h-602v57h1264v-57h-602v-1446h-60z" />
    <glyph glyph-name="U" unicode="U" horiz-adv-x="1347" 
d="M580 4q-200 0 -323 66t-183 161q-74 110 -74 232v1036h55v-1036q0 -46 21.5 -108t44.5 -97q55 -84 167 -141.5t296 -57.5q301 0 422 205q61 98 61 207v1028h55v-1028q0 -117 -65 -233q-88 -156 -228.5 -195t-248.5 -39z" />
    <glyph glyph-name="V" unicode="V" horiz-adv-x="1482" 
d="M594 -2l-594 1487l51 24l567 -1413l586 1413l53 -24l-618 -1487h-45z" />
    <glyph glyph-name="W" unicode="W" horiz-adv-x="2469" 
d="M1620 104l571 1405l54 -24l-605 -1485h-43l-489 1395l-490 -1395h-43l-575 1485l49 24l549 -1405l487 1397h45z" />
    <glyph glyph-name="X" unicode="X" horiz-adv-x="1525" 
d="M4 29l608 721l-612 727l51 28l598 -712l600 712l51 -28l-612 -729l606 -719l-41 -41l-604 717l-602 -717z" />
    <glyph glyph-name="Y" unicode="Y" horiz-adv-x="1423" 
d="M629 -4h-58l2 711l-573 778l51 31l549 -748l549 748l49 -29l-569 -774v-717z" />
    <glyph glyph-name="Z" unicode="Z" horiz-adv-x="1396" 
d="M10 1446v55h1145l16 -37l-1083 -1409h1075v-55h-1145l-18 37l1085 1409h-1075z" />
    <glyph glyph-name="bracketleft" unicode="[" horiz-adv-x="579" 
d="M0 -209v1706h354v-57h-299v-1592h299v-57h-354z" />
    <glyph glyph-name="backslash" unicode="\" horiz-adv-x="1069" 
d="M0 1556l47 27l797 -1575l-51 -24z" />
    <glyph glyph-name="bracketright" unicode="]" horiz-adv-x="579" 
d="M0 -209v57h299v1592h-299v57h354v-1706h-354z" />
    <glyph glyph-name="asciicircum" unicode="^" horiz-adv-x="1294" 
d="M0 803l518 721h33l518 -721l-49 -27l-488 676l-485 -678z" />
    <glyph glyph-name="underscore" unicode="_" horiz-adv-x="1155" 
d="M0 -98v57h930v-57h-930z" />
    <glyph glyph-name="grave" unicode="`" horiz-adv-x="518" 
d="M0 1538l39 41l254 -256l-39 -41z" />
    <glyph glyph-name="a" unicode="a" horiz-adv-x="899" 
d="M331 59q236 0 285 82v389q-478 -16 -520 -90q-37 -96 -37 -307q21 -42 105 -58t167 -16zM2 133v119q0 118 43 211q50 104 571 125v282q0 84 -79.5 115t-173.5 31q-154 0 -216.5 -53t-62.5 -91h-55q0 60 75.5 129.5t263.5 69.5t247 -64.5t59 -115.5v-891h-58v74
q-82 -72 -278 -72t-266 46.5t-70 84.5z" />
    <glyph glyph-name="b" unicode="b" horiz-adv-x="1042" 
d="M319 55q180 0 311.5 142.5t131.5 345t-131.5 345t-311.5 142.5q-133 0 -264 -100v-774q131 -101 264 -101zM298 1087q228 0 373.5 -160.5t145.5 -385.5t-146 -384t-352 -159q-148 0 -264 84v-82h-55v1583h55v-579q118 83 243 83z" />
    <glyph glyph-name="c" unicode="c" horiz-adv-x="933" 
d="M0 526q0 350 215 484h-2q100 69 215 69h281v-57h-281q-93 0 -193 -63.5t-139 -181t-39 -235.5t27 -200t79.5 -153.5t136 -102.5t128.5 -31h281v-57h-281q-93 0 -215 74.5t-167.5 206t-45.5 247.5z" />
    <glyph glyph-name="d" unicode="d" horiz-adv-x="1042" 
d="M498 1030q-180 0 -311.5 -142.5t-131.5 -345t131.5 -345t311.5 -142.5q128 0 264 99v776q-131 100 -264 100zM762 8v76q-119 -86 -264 -86q-204 0 -351 160t-147 383t146.5 384.5t351.5 161.5q143 0 264 -83v579h55v-1575h-55z" />
    <glyph glyph-name="e" unicode="e" horiz-adv-x="1105" 
d="M460 539q215 0 365 22q-4 217 -100 339t-264 122t-283 -131t-123 -328q190 -24 405 -24zM0 538.5q0 234.5 132 387.5t329 153t308.5 -148t111.5 -401q-271 -58 -512.5 -49.5t-313.5 25.5q12 -201 127.5 -327t284.5 -126q126 0 216.5 70t119.5 100l41 -39
q-176 -186 -404 -186q-76 0 -160.5 40t-182 153t-97.5 347.5z" />
    <glyph glyph-name="f" unicode="f" horiz-adv-x="909" 
d="M178 0v1022h-178v57h178v219q37 294 506 285v-55q-202 -4 -314 -51.5t-137 -176.5v-221h451v-57h-451v-1022h-55z" />
    <glyph glyph-name="g" unicode="g" horiz-adv-x="1069" 
d="M500 1016q-184 0 -314.5 -141t-130.5 -341t130.5 -341.5t314.5 -141.5q149 0 288 119v725q-144 121 -288 121zM500 1071q165 0 288 -100v129h56v-1301q0 -65 -71.5 -136.5t-197.5 -99.5t-256 -28h-135v55h135q286 0 368.5 77t91.5 113l9 36v280q-126 -102 -288 -102
q-210 0 -355 158t-145 382t145.5 380.5t354.5 156.5z" />
    <glyph glyph-name="h" unicode="h" horiz-adv-x="993" 
d="M363 1087q235 0 310 -93t85 -115.5t10 -24.5v-854h-55l-2 848q-91 182 -328 182q-123 0 -328 -74v-956h-55v1583h55v-567q186 71 308 71z" />
    <glyph glyph-name="i" unicode="i" horiz-adv-x="282" 
d="M0 1249v252h57v-252h-57zM0 0v1079h57v-1079h-57z" />
    <glyph glyph-name="j" unicode="j" horiz-adv-x="378" 
d="M96 1249v252h58v-252h-58zM-225 -467v57h127q63 0 104 43t59.5 110t25.5 129t6 108.5t-1 48.5v1050h56v-619q0 -620 -31 -719t-82 -153t-137 -55h-127z" />
    <glyph glyph-name="k" unicode="k" horiz-adv-x="999" 
d="M55 0h-55v1583h55v-954q135 3 205 23t86 30t21 12l360 396l47 -29l-356 -391l354 -654l-51 -26l-348 643q-115 -52 -318 -60v-573z" />
    <glyph glyph-name="l" unicode="l" horiz-adv-x="282" 
d="M0 0v1583h57v-1583h-57z" />
    <glyph glyph-name="m" unicode="m" horiz-adv-x="1613" 
d="M633 969q250 104 374 104t236.5 -66t145.5 -171v-836h-56v825q-43 96 -136 145.5t-177 49.5t-166 -25.5t-180 -66.5q33 -41 51 -92v-836h-57v829q-47 92 -135.5 140.5t-189.5 48.5t-288 -72v-946h-55v1077h55v-71q183 69 289 69q164 0 289 -106z" />
    <glyph glyph-name="n" unicode="n" horiz-adv-x="958" 
d="M678 2v840q-47 94 -138 137t-202 43t-283 -61v-959h-55v1075h55v-57q168 59 292 59t242 -67t144 -172v-838h-55z" />
    <glyph glyph-name="o" unicode="o" horiz-adv-x="1161" 
d="M172.5 895.5q-117.5 -126.5 -117.5 -326.5v-57q0 -198 117 -326.5t295 -128.5t295 128.5t117 326.5v57q0 200 -117.5 326.5t-294.5 126.5t-294.5 -126.5zM0 512v57q0 223 132 366.5t336 143.5t336 -143.5t132 -366.5v-57q0 -222 -132 -367t-336 -145t-336 145t-132 367z
" />
    <glyph glyph-name="p" unicode="p" horiz-adv-x="1042" 
d="M630.5 887.5q-131.5 142.5 -311.5 142.5q-129 0 -264 -104v-770q139 -103 247 -103q109 0 189 39t175.5 144t95.5 307t-131.5 344.5zM319 1085q206 0 352 -159t146 -384.5t-146 -384.5t-352 -159q-145 0 -264 86v-551h-55v1544h55v-80q114 88 264 88z" />
    <glyph glyph-name="q" unicode="q" horiz-adv-x="1042" 
d="M498 1030q-180 0 -311.5 -142.5t-131.5 -344.5t131 -346t312 -144q128 0 264 103v770q-135 104 -264 104zM498 1085q148 0 264 -88v80h55v-1544h-55v549q-114 -84 -264 -84q-204 0 -351 160t-147 383.5t147 383.5t351 160z" />
    <glyph glyph-name="r" unicode="r" horiz-adv-x="702" 
d="M477 1022q-300 0 -422 -311v-711h-55v1079h55v-248q92 164 213 206t209 42v-57z" />
    <glyph glyph-name="s" unicode="s" horiz-adv-x="901" 
d="M291 514q-144 0 -223 82q-68 63 -68 175q0 221 182.5 283.5t493.5 -34.5l-41 -55q-249 90 -414.5 38.5t-165.5 -237.5q0 -78 49 -131q73 -67 185 -64q217 0 319 -104q66 -66 66 -152q0 -233 -171 -290.5t-503 34.5l41 56q419 -136 498 -15t79 200t-49 130q-84 84 -278 84
z" />
    <glyph glyph-name="t" unicode="t" horiz-adv-x="552" 
d="M94 231v791h-94v57h94v207h56v-207h178v-57h-178v-791q8 -176 178 -176v-55q-111 4 -172.5 62.5t-61.5 168.5z" />
    <glyph glyph-name="u" unicode="u" horiz-adv-x="958" 
d="M400 57q111 0 278 60v960h55v-1075h-55v55q-166 -57 -284 -57t-192 33q-108 49 -155 113.5t-47 84.5v846h55l2 -839q10 -23 44 -68t111 -79t188 -34z" />
    <glyph glyph-name="v" unicode="v" horiz-adv-x="1148" 
d="M432 -4l-432 1071l51 25l402 -998l419 998l52 -25l-451 -1071h-41z" />
    <glyph glyph-name="w" unicode="w" horiz-adv-x="1837" 
d="M1159 100q64 158 404 987l49 -24l-430 -1063h-43l-342 977l-342 -977h-43l-412 1063l49 24l383 -985l342 977h45z" />
    <glyph glyph-name="x" unicode="x" horiz-adv-x="1173" 
d="M0 23l436 518l-430 512l41 41l428 -508l428 508l39 -41l-430 -512l436 -518l-49 -29l-424 504l-426 -506z" />
    <glyph glyph-name="y" unicode="y" horiz-adv-x="1150" 
d="M76 -465v55q160 0 346 420l-422 1053l51 24l404 -1003q315 751 419 1003l52 -24q-166 -393 -281 -681t-207 -476.5t-175 -279.5t-187 -91z" />
    <glyph glyph-name="z" unicode="z" horiz-adv-x="1071" 
d="M10 1022v57h819l17 -35l-758 -987h750v-57h-820l-18 35l760 987h-750z" />
    <glyph glyph-name="braceleft" unicode="{" horiz-adv-x="567" 
d="M176 490v-484q0 -155 56.5 -237t82.5 -104l27 -21l-27 -50l-30 26q-83 70 -124.5 176t-41.5 210v260q0 261 -27 293q-2 0 -2 1t-2 1h-88v55h88l2 2q2 0 2 1.5t2 1.5q25 30 25 63v487q0 175 67.5 268t99.5 120l31 26l25 -51l-27 -23q-69 -59 -104 -153t-35 -187v-261
q0 -260 -39 -322q39 -61 39 -98z" />
    <glyph glyph-name="bar" unicode="|" horiz-adv-x="280" 
d="M0 -444v2003h55v-2003h-55z" />
    <glyph glyph-name="braceright" unicode="}" horiz-adv-x="567" 
d="M223 498v-492q0 -178 -67.5 -269t-98.5 -117l-30 -26l-27 50l27 21q66 54 102.5 150.5t36.5 190.5v344q0 2 -3 88.5t40 149.5q-37 58 -37 94v489q0 158 -56.5 238t-82.5 102l-27 23l25 51l31 -26q82 -70 124.5 -176.5t42.5 -211.5v-262q0 -262 31 -293h88v-55h-90
q-29 -29 -29 -63z" />
    <glyph glyph-name="asciitilde" unicode="~" horiz-adv-x="952" 
d="M522 629q-76 0 -150 -75t-169 -75h-2q-64 0 -116 33t-69 48l-16 15l39 41q79 -79 159 -79t144 65q82 86 182 82q107 0 203 -96l-45 -43q-84 84 -160 84z" />
    <glyph glyph-name="exclamdown" unicode="&#xa1;" horiz-adv-x="280" 
d="M0 838v241h55v-241h-55zM0 -465v1192h55v-1192h-55z" />
    <glyph glyph-name="cent" unicode="&#xa2;" horiz-adv-x="999" 
d="M55 540q0 -256 123 -368v2q82 -72 205 -65l27 2v858l-27 4q-122 7 -205 -66v2q-123 -113 -123 -369zM358 51q-125 0 -217 82v-2q-141 123 -141 410t143 409q67 57 133 68.5t89.5 9.5t25.5 -2l-2 2q6 -2 21 -2v320h57v-326l307 -29l-2 -57l-305 29v-846l305 30l2 -57
l-307 -31v-319h-57v313l-21 -2h-31z" />
    <glyph glyph-name="sterling" unicode="&#xa3;" horiz-adv-x="1200" 
d="M672 723v-55h-342q0 -163 -20.5 -273t-39.5 -151q106 0 208 -98t208 -97q75 0 131.5 38t75.5 56l18 19l45 -41q-66 -66 -140.5 -97.5t-129.5 -31.5h-2q-135 0 -246 114q-41 41 -92 61.5t-92 20.5q-52 -9 -100 -48.5t-65 -61t-23 -28.5t-7.5 -9t-11.5 -12l-47 24
q2 2 18.5 26.5t67.5 80t133 78.5q36 55 45.5 211.5t9.5 218.5h-235v55h235q-3 232 -49 442q-45 175 -61 191l35 12q184 62 319 62t222 -41t139.5 -90.5t74 -90.5t21.5 -43l-43 -18q0 2 -20.5 38t-106 112.5t-279.5 76.5q-135 0 -284 -49q82 -205 88 -602h342z" />
    <glyph glyph-name="currency" unicode="&#xa4;" horiz-adv-x="1300" 
d="M312 907q-101 -99 -101 -241q0 -143 100.5 -241.5t242.5 -98.5q141 0 240 99t99 241t-99.5 241t-239.5 99q-141 0 -242 -99zM156 651q0 152 88 262l-244 265l39 39l242 -263q116 107 264 107t262 -92l229 248l39 -39l-229 -248q104 -117 104 -264q0 -88 -36.5 -166
t-98.5 -131l197 -217l-39 -39l-201 223q-97 -68 -223 -68t-232 78l-217 -233l-39 39l213 229q-118 118 -118 270z" />
    <glyph glyph-name="yen" unicode="&#xa5;" horiz-adv-x="1411" 
d="M563 -4v436h-370v57h370v216l-4 4h-366v55h325l-518 704l49 29l541 -733h4l543 733l49 -27l-522 -706h327v-55h-368l-2 -4v-216h370v-57h-370v-436h-58z" />
    <glyph glyph-name="brokenbar" unicode="&#xa6;" horiz-adv-x="280" 
d="M0 -225v645h55v-645h-55zM0 621v645h55v-645h-55z" />
    <glyph glyph-name="section" unicode="&#xa7;" horiz-adv-x="993" 
d="M428 406q28 -14 70 -28q42 -15 71 -38q158 174 140 287q-31 117 -87 141l-256 110q-37 16 -55 17q-16 6 -35.5 15.5t-33.5 15.5t-43 22q-162 -174 -138 -286q36 -136 367 -256zM610 305q88 -92 88 -228t-87 -209t-189 -73q-184 0 -283 105q-78 88 -78 254l56 -2v-23
q0 -119 70 -198q70 -78 235 -78q134 0 177.5 84t43.5 150q0 65 -31.5 130.5t-109.5 95.5q-16 8 -36 15.5t-33 13.5t-19 7t-38 15t-186 79t-184 208q-31 139 150 332q-86 86 -86 225t87 212t187 73q306 0 335.5 -146.5t29.5 -153.5v-56l-58 2q7 136 -68 217q-75 82 -239 82
q-132 0 -175.5 -84.5t-43.5 -151.5q0 -66 35 -129t104 -98l98 -39q183 -75 282 -137t120 -160q29 -139 -154 -334z" />
    <glyph glyph-name="dieresis" unicode="&#xa8;" horiz-adv-x="499" 
d="M219 1319v178h55v-178h-55zM0 1319v178h55v-178h-55z" />
    <glyph glyph-name="copyright" unicode="&#xa9;" horiz-adv-x="1726" 
d="M456 1054q71 130 255 142h217v-55h-217q-70 0 -170.5 -67.5t-100.5 -278.5q0 -142 41 -213.5t101.5 -113.5t130.5 -42h215v-55h-217l-25 3q-65 8 -122.5 43.5t-118 110.5t-60.5 236q0 160 71 290zM749.5 1479q-143.5 0 -270.5 -55.5t-221 -149.5t-148.5 -221
t-54.5 -270.5t54.5 -269.5t148.5 -220t221 -149.5t270.5 -55.5t270.5 55.5t221 149.5t149.5 220t55.5 269.5t-55.5 270.5t-149.5 221t-221 149.5t-270.5 55.5zM749.5 31q-155.5 0 -291.5 59.5t-237.5 161.5t-161 240t-59.5 292t59.5 291t161 238.5t237.5 161t291.5 59.5
t293 -59.5t239.5 -161t160.5 -238.5t58.5 -292t-58.5 -292t-160.5 -239t-239.5 -161.5t-293 -59.5z" />
    <glyph glyph-name="ordfeminine" unicode="&#xaa;" horiz-adv-x="724" 
d="M59 792q0 -19 44.5 -36t125.5 -17q80 0 116 8.5t57.5 18.5t29.5 21.5t12 17.5v260q-337 -14 -360 -61q-25 -57 -25 -212zM51.5 721.5q-49.5 37.5 -49.5 54.5v85q0 85 33 165q49 76 409 94v209q0 67 -69.5 75.5t-87.5 8.5h-19q-100 0 -143 -40.5t-43 -63.5l-55 4
q0 2 8 26.5t52.5 76.5t180.5 52h23q114 0 174 -55q35 -39 35 -84v-645h-56v45q-68 -45 -205 -45q-138 0 -187.5 37.5z" />
    <glyph glyph-name="guillemotleft" unicode="&#xab;" horiz-adv-x="976" 
d="M68 561q172 -141 405 -336l-29 -49l-444 367v32l440 363l41 -43zM338 561q172 -141 405 -336l-28 -49l-445 367v32l441 363l41 -43z" />
    <glyph glyph-name="logicalnot" unicode="&#xac;" horiz-adv-x="1173" 
d="M893 322v403h-893v55h948v-458h-55z" />
    <glyph glyph-name="registered" unicode="&#xae;" horiz-adv-x="1714" 
d="M612 1073v-356q63 6 240 18q22 65 30 157q9 93 3 107.5t-15 26.5q-40 40 -137 47h-121zM555 344v784h178q56 0 105.5 -22t77.5 -50t28 -91q-16 -150 -33.5 -213.5t-21.5 -69.5l-78 -8l272 -289l-47 -29l-297 312l-127 -11v-313h-57zM743.5 1464q-141.5 0 -267.5 -54
t-219 -147.5t-147.5 -219t-54.5 -267t54.5 -266.5t147.5 -219t219 -148.5t267.5 -54.5t266.5 54.5t219 148.5t148.5 219t54.5 266.5t-54.5 267t-148.5 219t-219 147.5t-266.5 54zM743.5 33q-153.5 0 -290 58.5t-236.5 158.5t-158.5 236.5t-58.5 290t58.5 289.5t158.5 236.5
t236.5 159t290 58.5t289.5 -58.5t237.5 -159t160 -236.5t58.5 -289.5t-58.5 -290t-160 -236.5t-237.5 -158.5t-289.5 -58.5z" />
    <glyph glyph-name="degree" unicode="&#xb0;" horiz-adv-x="808" 
d="M125 1331q-70 -70 -70 -168t71 -165.5t166 -67.5t165.5 67t70.5 166t-69.5 168.5t-166.5 69.5t-167 -70zM290.5 872q-61.5 0 -113.5 23t-92 62.5t-62.5 92t-22.5 114t22.5 114.5t62.5 93t92 62.5t113.5 22.5t115 -22.5t93.5 -62.5t62.5 -93t22.5 -114.5t-22.5 -114
t-62.5 -92t-93.5 -62.5t-115 -23z" />
    <glyph glyph-name="plusminus" unicode="&#xb1;" horiz-adv-x="1101" 
d="M0 33v55h877v-55h-877zM412 199v411h-412v56h412v409h55v-409h410v-56h-410v-411h-55z" />
    <glyph glyph-name="twosuperior" unicode="&#xb2;" horiz-adv-x="546" 
d="M164 1563q68 0 113 -49.5t45 -124.5q-6 -75 -89 -158q-41 -41 -75.5 -77t-59.5 -58h224v-58h-306l-12 29q0 12 82 94l109 107q71 70 71 122t-29.5 84.5t-73.5 32.5t-73 -25.5t-33 -70.5l-2 -27l-55 2l2 31q6 66 50 106t112 40z" />
    <glyph glyph-name="threesuperior" unicode="&#xb3;" horiz-adv-x="532" 
d="M307 1199q0 -75 -46 -118t-118 -43h-16q-63 0 -121 45l29 47q45 -37 92 -36h16q47 0 78 27.5t31 67.5t-27.5 66.5t-72.5 30.5h-72v55h72q37 2 61.5 25.5t24.5 59.5t-27 59.5t-68 23.5h-16q-45 0 -80 -34l-47 26q56 64 127 64h16q66 0 108 -39t42 -104t-55 -107
q69 -41 69 -116z" />
    <glyph glyph-name="acute" unicode="&#xb4;" horiz-adv-x="503" 
d="M0 1309l252 184l27 -49l-248 -182z" />
    <glyph glyph-name="mu" unicode="&#xb5;" horiz-adv-x="1003" 
d="M721 1079h57v-1175h-57v157q-170 -98 -315 -98q-207 0 -351 166v-592h-55v1542h55v-856q167 -205 348 -205q141 0 318 105v956z" />
    <glyph glyph-name="paragraph" unicode="&#xb6;" horiz-adv-x="1429" 
d="M1057 1421h-211v-1011q62 3 211 24v987zM55 895q0 -219 135 -336q166 -153 541 -153h57v1015q-184 0 -375 -65.5t-274.5 -187t-83.5 -273.5zM846 -449h-58v799h-61q-247 0 -382.5 59.5t-190.5 106.5q-154 154 -154 362t73.5 308t164 156.5t237.5 96.5t181 40h548v-58h-92
v-1870h-55v826q-170 -21 -211 -23v-803z" />
    <glyph glyph-name="periodcentered" unicode="&#xb7;" horiz-adv-x="280" 
d="M0 551v217h55v-217h-55z" />
    <glyph glyph-name="cedilla" unicode="&#xb8;" horiz-adv-x="563" 
d="M283 -211q-4 36 -21 53h-217l-20 21l16 186h55l-14 -151h186q78 -39 68 -117q-6 -61 -11 -90t-8 -47l-22 -21l-295 64l4 53l264 -55l11 79z" />
    <glyph glyph-name="onesuperior" unicode="&#xb9;" horiz-adv-x="405" 
d="M0 1499q83 0 133 76l47 -4v-533h-55v443q-64 -39 -125 -39v57z" />
    <glyph glyph-name="ordmasculine" unicode="&#xba;" horiz-adv-x="692" 
d="M233.5 1505q-77.5 0 -128 -54t-50.5 -140v-29q0 -86 50.5 -141.5t128 -55.5t128 55.5t50.5 141.5v29q0 86 -50.5 140t-128 54zM233 1030q-104 0 -168.5 72t-64.5 180v29q0 111 65.5 180.5t168.5 69.5t168 -70t65 -180v-29q0 -111 -65 -181.5t-169 -70.5z" />
    <glyph glyph-name="guillemotright" unicode="&#xbb;" horiz-adv-x="976" 
d="M682 561l-406 330l27 53l449 -369v-32l-443 -363l-30 45zM412 561l-406 330l27 53l448 -369v-32l-442 -361l-39 39z" />
    <glyph glyph-name="onequarter" unicode="&#xbc;" horiz-adv-x="1314" 
d="M160 821v568q-70 -56 -160 -56v56q65 0 103 35q37 35 57 61l55 -2v-662h-55zM936 236v331q-63 -86 -118.5 -163.5t-121.5 -167.5h240zM936 4v176h-305l-19 35l336 459l43 -2v-436h99v-56h-99v-176h-55zM57 20l871 1457l49 -27l-871 -1458z" />
    <glyph glyph-name="onehalf" unicode="&#xbd;" horiz-adv-x="1267" 
d="M841 623q-62 0 -102.5 -37t-50.5 -99v-26l-55 2l2 31q12 84 67.5 134t139.5 50t142 -61.5t58 -157.5q-12 -105 -114 -207q-57 -55 -112.5 -110.5t-86.5 -84.5h313v-55h-391l-26 53q13 0 122 101.5t171 163.5t69 139q0 72 -42 118t-104 46zM160 821v568q-70 -56 -160 -56
v56q65 0 103 35q37 35 57 61l55 -2v-662h-55zM63 20l873 1457l47 -27l-870 -1458z" />
    <glyph glyph-name="threequarters" unicode="&#xbe;" horiz-adv-x="1294" 
d="M915 236v329q-59 -82 -118.5 -162.5t-120.5 -166.5h239zM289 1165q98 -50 98 -179q0 -69 -57.5 -122t-149.5 -53h-22q-80 0 -150 53l31 47q59 -47 119 -47h22q66 0 109 39t43 97t-43 97.5t-109 39.5h-78v55h78q59 0 95 34t36 85t-35.5 85t-95.5 34h-20q-63 0 -111 -48
l-49 29q74 74 160 74h20q82 0 134.5 -48t52.5 -134q0 -87 -78 -138zM47 20l868 1453l50 -27l-869 -1454zM915 4v176h-305l-18 33l340 467l39 -18v-426h98v-56h-98v-176h-56z" />
    <glyph glyph-name="questiondown" unicode="&#xbf;" horiz-adv-x="929" 
d="M274 1077v-227h-57v227h57zM274 682q0 -131 42 -212t106.5 -141.5t127 -122t109 -129t46.5 -151.5q1 -145 -95 -239q-96 -95 -251 -95t-257 97t-102 270h57q0 -154 87 -232.5t243.5 -78.5t214 110.5t48.5 177t-29 105.5q-33 55 -79 100t-136 125t-139 174q-50 94 -50 242
h57z" />
    <glyph glyph-name="Agrave" unicode="&#xc0;" 
d="M483 1790l29 49l254 -186l-29 -49zM358 737h541l-264 664zM0 16l612 1485h45l592 -1485l-51 -24l-276 690h-586l-283 -688z" />
    <glyph glyph-name="Aacute" unicode="&#xc1;" 
d="M483 1653l256 186l27 -49l-252 -184zM358 737h541l-264 664zM0 16l612 1485h45l592 -1485l-51 -24l-276 690h-586l-283 -688z" />
    <glyph glyph-name="Acircumflex" unicode="&#xc2;" 
d="M623 1759l-174 -213l-46 33l203 250h35l203 -250l-49 -29zM358 737h541l-264 664zM0 16l612 1485h45l592 -1485l-51 -24l-276 690h-586l-283 -688z" />
    <glyph glyph-name="Atilde" unicode="&#xc3;" 
d="M444 1751q39 -45 82 -45t86 43t98 43t90 -26.5t54 -45.5l-51 -28q-45 45 -86 45t-82 -43t-103 -43h-2q-64 0 -135 71zM358 737h541l-264 664zM0 16l612 1485h45l592 -1485l-51 -24l-276 690h-586l-283 -688z" />
    <glyph glyph-name="Adieresis" unicode="&#xc4;" 
d="M485 1620v180h56v-180h-56zM707 1620v180h55v-180h-55zM358 737h541l-264 664zM0 16l612 1485h45l592 -1485l-51 -24l-276 690h-586l-283 -688z" />
    <glyph glyph-name="Aring" unicode="&#xc5;" 
d="M624.5 1796q-34.5 0 -61 -25.5t-26.5 -61.5t26.5 -62.5t61 -26.5t60.5 26.5t26 62.5t-26 61.5t-60.5 25.5zM624 1565q-60 0 -101.5 42t-41.5 101t41.5 101t101.5 42t102 -42t42 -101t-42 -101t-102 -42zM358 737h541l-264 664zM0 16l612 1485h45l592 -1485l-51 -24
l-276 690h-586l-283 -688z" />
    <glyph glyph-name="AE" unicode="&#xc6;" horiz-adv-x="1841" 
d="M322 733h405l-166 647zM1616 59v-57h-688l-19 16l-168 658h-440l-252 -682l-49 22l545 1485h907v-57h-846l182 -711h494v-57h-479q110 -435 158 -617h655z" />
    <glyph glyph-name="Ccedilla" unicode="&#xc7;" horiz-adv-x="1105" 
d="M0 752q0 407 201 602q92 89 185 114t126 26l33 1h336v-55h-338l-29 -1q-66 -2 -143.5 -39.5t-128.5 -86.5q-186 -180 -186.5 -561t186.5 -564q113 -109 272 -125l29 -2h338v-55h-187q-186 0 -207 4l-36 -131h141q37 0 52 -38.5t11 -70.5t-5 -59.5t-7 -72.5l-25 -23
l-251 59l4 60l219 -56l6 60l4 35q0 14 -10 49h-182l-23 24l45 174q-134 37 -229 130q-201 195 -201 602z" />
    <glyph glyph-name="Egrave" unicode="&#xc8;" horiz-adv-x="1110" 
d="M184 1839l29 49l264 -194l-28 -49zM0 0v1499h721v-55h-664v-707l594 2v-57l-594 -2v-623h828v-57h-885z" />
    <glyph glyph-name="Eacute" unicode="&#xc9;" horiz-adv-x="1110" 
d="M256 1720l252 185l27 -50l-248 -182zM0 -2v1503h723v-57h-666v-707h594v-57h-594v-625h828v-57h-885z" />
    <glyph glyph-name="Ecircumflex" unicode="&#xca;" horiz-adv-x="1107" 
d="M330 1802q-132 -156 -180 -219l-50 31l213 260h33l215 -260l-53 -27zM0 0v1497h719v-57h-662v-703h592v-57h-592v-623h826v-57h-883z" />
    <glyph glyph-name="Edieresis" unicode="&#xcb;" horiz-adv-x="1107" 
d="M186 1661v186h58v-186h-58zM418 1661v186h57v-186h-57zM0 0v1499h721v-57h-664v-703h594v-57h-594v-625h826v-57h-883z" />
    <glyph glyph-name="Igrave" unicode="&#xcc;" horiz-adv-x="522" 
d="M0 1833l31 49l266 -196l-39 -44zM119 0v1501h57v-1501h-57z" />
    <glyph glyph-name="Iacute" unicode="&#xcd;" horiz-adv-x="518" 
d="M0 1690l266 194l27 -49l-260 -193zM119 0v1501h57v-1501h-57z" />
    <glyph glyph-name="Icircumflex" unicode="&#xce;" horiz-adv-x="671" 
d="M195 0v1501h57v-1501h-57zM223 1800l-182 -223l-41 39l207 254h31l208 -254l-40 -39z" />
    <glyph glyph-name="Idieresis" unicode="&#xcf;" horiz-adv-x="514" 
d="M117 0v1501h57v-1501h-57zM231 1657v186h58v-186h-58zM0 1657v186h57v-186h-57z" />
    <glyph glyph-name="Eth" unicode="&#xd0;" horiz-adv-x="1589" 
d="M670 737v-57h-324v-623h469l29 1q69 2 147 40.5t129 87.5q184 184 184 568t-186 563q-87 84 -166.5 104.5t-107.5 21.5l-29 1h-469v-707h324zM291 0v680h-291v57h291v764h524q110 0 197.5 -44t146.5 -99q205 -201 205 -606.5t-205 -606.5q-85 -85 -182 -115t-158 -30
h-528z" />
    <glyph glyph-name="Ntilde" unicode="&#xd1;" 
d="M444 1751q39 -45 82 -45t86 43t98 43t90 -26.5t54 -45.5l-51 -26q-54 43 -90 43q-37 0 -78 -43t-103 -43h-2q-64 0 -135 71zM0 -2v1460l41 17l1149 -1362v1388h59v-1476l-43 -19l-1149 1362v-1370h-57z" />
    <glyph glyph-name="Ograve" unicode="&#xd2;" horiz-adv-x="1521" 
d="M504 1837l28 49l263 -196l-31 -50zM649 1438q-253 0 -421.5 -183.5t-168.5 -466.5v-81q0 -285 168.5 -468.5t421.5 -183.5t421.5 183.5t168.5 468.5v81q0 283 -168.5 466.5t-421.5 183.5zM0 707v81q0 311 184.5 509t465.5 198t463.5 -198.5t182.5 -508.5v-81
q0 -309 -182 -509t-464 -200t-466 199.5t-184 509.5z" />
    <glyph glyph-name="Oacute" unicode="&#xd3;" horiz-adv-x="1521" 
d="M504 1690l262 196l29 -49l-260 -195zM649 1438q-253 0 -421.5 -183.5t-168.5 -466.5v-81q0 -285 168.5 -468.5t421.5 -183.5t421.5 183.5t168.5 468.5v81q0 283 -168.5 466.5t-421.5 183.5zM0 707v81q0 311 184.5 509t465.5 198t463.5 -198.5t182.5 -508.5v-81
q0 -309 -182 -509t-464 -200t-466 199.5t-184 509.5z" />
    <glyph glyph-name="Ocircumflex" unicode="&#xd4;" horiz-adv-x="1521" 
d="M649 1802l-180 -219l-47 31l209 260h35l213 -260l-54 -27zM649 1438q-253 0 -421.5 -183.5t-168.5 -466.5v-81q0 -285 168.5 -468.5t421.5 -183.5t421.5 183.5t168.5 468.5v81q0 283 -168.5 466.5t-421.5 183.5zM0 707v81q0 311 184.5 509t465.5 198t463.5 -198.5
t182.5 -508.5v-81q0 -309 -182 -509t-464 -200t-466 199.5t-184 509.5z" />
    <glyph glyph-name="Otilde" unicode="&#xd5;" horiz-adv-x="1521" 
d="M745 1837q60 0 136 -70l-60 -59q0 11 -25.5 40.5t-58.5 29.5t-79 -44t-105 -44h-2q-66 0 -139 73l51 27q95 -76 158 -14q64 61 124 61zM649 1438q-253 0 -421.5 -183.5t-168.5 -466.5v-81q0 -285 168.5 -468.5t421.5 -183.5t421.5 183.5t168.5 468.5v81
q0 283 -168.5 466.5t-421.5 183.5zM0 707v81q0 311 184.5 509t465.5 198t463.5 -198.5t182.5 -508.5v-81q0 -309 -182 -509t-464 -200t-466 199.5t-184 509.5z" />
    <glyph glyph-name="Odieresis" unicode="&#xd6;" horiz-adv-x="1521" 
d="M737 1659v184h56v-184h-56zM506 1659v184h57v-184h-57zM649 1438q-253 0 -421.5 -183.5t-168.5 -466.5v-81q0 -285 168.5 -468.5t421.5 -183.5t421.5 183.5t168.5 468.5v81q0 283 -168.5 466.5t-421.5 183.5zM0 707v81q0 311 184.5 509t465.5 198t463.5 -198.5
t182.5 -508.5v-81q0 -309 -182 -509t-464 -200t-466 199.5t-184 509.5z" />
    <glyph glyph-name="multiply" unicode="&#xd7;" horiz-adv-x="1308" 
d="M0 45l502 502l-502 504l41 39l502 -502l501 502l39 -39l-501 -504l501 -502l-39 -39l-501 502l-502 -502z" />
    <glyph glyph-name="Oslash" unicode="&#xd8;" horiz-adv-x="1722" 
d="M162 786v-84q0 -254 137 -428l831 1014q-161 144 -380 144q-256 0 -422 -183t-166 -463zM1335 702v84q0 278 -164 459l-833 -1016q164 -172 415 -172t416.5 183.5t165.5 461.5zM1395 786v-84q0 -302 -182 -502t-456 -200t-456 182l-250 -303l-51 31l260 317
q-156 194 -156 475v84q0 304 182.5 503.5t463.5 199.5q240 0 417 -156l279 338l51 -29l-287 -350q185 -202 185 -506z" />
    <glyph glyph-name="Ugrave" unicode="&#xd9;" horiz-adv-x="1355" 
d="M416 1802l41 39l252 -184l-29 -49zM261.5 64.5q-127.5 68.5 -185.5 162.5q-43 63 -59.5 130t-16.5 102v1044h57v-1044q0 -99 70 -211t200 -153.5t256 -41.5t208.5 30t155.5 89t100.5 152t27.5 143v1036h55v-1036q0 -58 -22 -126.5t-46 -109.5t-61.5 -81.5t-130.5 -97
t-287 -56.5t-321.5 68.5z" />
    <glyph glyph-name="Uacute" unicode="&#xda;" horiz-adv-x="1355" 
d="M416 1653l266 192l27 -47l-254 -188zM261.5 64.5q-127.5 68.5 -185.5 162.5q-43 63 -59.5 130t-16.5 102v1044h57v-1044q0 -99 70 -211t200 -153.5t269 -41.5t246.5 53.5t169.5 153.5q45 88 63 207v1036h55v-1036q0 -58 -22 -126.5t-46 -109.5t-61.5 -81.5t-130.5 -97
t-287 -56.5t-321.5 68.5z" />
    <glyph glyph-name="Ucircumflex" unicode="&#xdb;" horiz-adv-x="1355" 
d="M563 1765l-174 -217l-51 33l211 256h33l202 -250l-41 -41zM261.5 64.5q-127.5 68.5 -185.5 162.5q-43 63 -59.5 130t-16.5 102v1044h57v-1044q0 -99 70 -211t200 -153.5t256 -41.5t208.5 30t155.5 89t100.5 152t27.5 143v1036h55v-1036q0 -58 -22 -126.5t-46 -109.5
t-61.5 -81.5t-130.5 -97t-287 -56.5t-321.5 68.5z" />
    <glyph glyph-name="Udieresis" unicode="&#xdc;" horiz-adv-x="1355" 
d="M649 1622v186h58v-186h-58zM424 1622v186h55v-186h-55zM261.5 64.5q-127.5 68.5 -185.5 162.5q-43 63 -59.5 130t-16.5 102v1044h57v-1044q0 -99 70 -211t200 -153.5t256 -41.5t208.5 30t155.5 89t100.5 152t27.5 143v1036h55v-1036q0 -58 -22 -126.5t-46 -109.5
t-61.5 -81.5t-130.5 -97t-287 -56.5t-321.5 68.5z" />
    <glyph glyph-name="Yacute" unicode="&#xdd;" horiz-adv-x="1423" 
d="M457 1653l256 186l26 -49l-250 -184zM629 -4h-58l2 711l-573 778l51 31l549 -748l549 748l49 -29l-563 -766l2 -2l-8 -6v-717z" />
    <glyph glyph-name="Thorn" unicode="&#xde;" horiz-adv-x="944" 
d="M157 467q295 0 418 104h-2q88 78 89 207q0 277 -394 277q-67 0 -213 -25v-559q36 -4 102 -4zM182 410q-85 0 -127 4v-414h-55v1499h55v-409q103 20 200 20q240 0 355 -94q109 -86 109 -241t-111 -247h2q-137 -118 -428 -118z" />
    <glyph glyph-name="germandbls" unicode="&#xdf;" horiz-adv-x="1101" 
d="M2 -39v1053q0 153 39 255.5t92 157.5q96 96 242 97q203 0 274 -121q33 -53 33 -127q0 -140 -80 -277q-78 -145 -164 -252q-12 -15 -25 -56t3 -79q16 -39 87.5 -68.5t147.5 -36.5t111 -25.5t76.5 -65t35.5 -119.5q-5 -113 -132 -192.5t-396 -79.5v57q240 0 354.5 63
t118.5 152q4 57 -36 102t-99 50q-266 25 -322 145q-30 87 4 138.5t48 73.5t39 60q25 39 51 82t52 88t47.5 108.5t21.5 123t-27 106.5q-53 94 -223 94q-125 0 -201 -82q-76 -76 -95.5 -180t-19.5 -144v-1101h-57z" />
    <glyph glyph-name="agrave" unicode="&#xe0;" horiz-adv-x="899" 
d="M199 1337l26 47l252 -182l-28 -49zM331 59q236 0 285 82v389q-478 -16 -520 -90q-37 -96 -37 -307q21 -42 105 -58t167 -16zM2 133v119q0 118 43 211q50 104 571 125v282q0 84 -79.5 115t-173.5 31q-154 0 -216.5 -53t-62.5 -91h-55q0 60 75.5 129.5t263.5 69.5
t247 -64.5t59 -115.5v-891h-58v74q-82 -72 -278 -72t-266 46.5t-70 84.5z" />
    <glyph glyph-name="aacute" unicode="&#xe1;" horiz-adv-x="899" 
d="M199 1202l252 182l26 -47l-248 -182zM331 59q236 0 285 82v389q-478 -16 -520 -90q-37 -96 -37 -307q21 -42 105 -58t167 -16zM2 133v119q0 118 43 211q50 104 571 125v282q0 84 -79.5 115t-173.5 31q-154 0 -216.5 -53t-62.5 -91h-55q0 60 75.5 129.5t263.5 69.5
t247 -64.5t59 -115.5v-891h-58v74q-82 -72 -278 -72t-266 46.5t-70 84.5z" />
    <glyph glyph-name="acircumflex" unicode="&#xe2;" horiz-adv-x="899" 
d="M338 1305l-174 -207l-45 30l200 248h35l201 -248l-49 -26zM331 59q236 0 285 82v389q-478 -16 -520 -90q-37 -96 -37 -307q21 -42 105 -58t167 -16zM2 133v119q0 118 43 211q50 104 571 125v282q0 84 -79.5 115t-173.5 31q-154 0 -216.5 -53t-62.5 -91h-55
q0 60 75.5 129.5t263.5 69.5t247 -64.5t59 -115.5v-891h-58v74q-82 -72 -278 -72t-266 46.5t-70 84.5z" />
    <glyph glyph-name="atilde" unicode="&#xe3;" horiz-adv-x="899" 
d="M426 1282q-37 0 -77 -41t-101 -41h-2q-65 0 -129 64l39 39q41 -48 83 -48t78 33q51 51 114 51t132 -63l-45 -41q-55 47 -92 47zM331 59q236 0 285 82v389q-478 -16 -520 -90q-37 -96 -37 -307q21 -42 105 -58t167 -16zM2 133v119q0 118 43 211q50 104 571 125v282
q0 84 -79.5 115t-173.5 31q-154 0 -216.5 -53t-62.5 -91h-55q0 60 75.5 129.5t263.5 69.5t247 -64.5t59 -115.5v-891h-58v74q-82 -72 -278 -72t-266 46.5t-70 84.5z" />
    <glyph glyph-name="adieresis" unicode="&#xe4;" horiz-adv-x="899" 
d="M420 1167v181h55v-181h-55zM201 1167v181h57v-181h-57zM331 59q236 0 285 82v389q-478 -16 -520 -90q-37 -96 -37 -307q21 -42 105 -58t167 -16zM2 133v119q0 118 43 211q50 104 571 125v282q0 84 -79.5 115t-173.5 31q-154 0 -216.5 -53t-62.5 -91h-55q0 60 75.5 129.5
t263.5 69.5t247 -64.5t59 -115.5v-891h-58v74q-82 -72 -278 -72t-266 46.5t-70 84.5z" />
    <glyph glyph-name="aring" unicode="&#xe5;" horiz-adv-x="899" 
d="M338 1341q-35 0 -60.5 -24.5t-25.5 -59t25.5 -61.5t60.5 -27t59.5 27t24.5 61.5t-24.5 59t-59.5 24.5zM338 1114q-59 0 -100 42t-41 100t41 100.5t100 42.5t100 -42.5t41 -100.5t-41 -100t-100 -42zM331 59q236 0 285 82v389q-478 -16 -520 -90q-37 -96 -37 -307
q21 -42 105 -58t167 -16zM2 133v119q0 118 43 211q50 104 571 125v282q0 84 -79.5 115t-173.5 31q-154 0 -216.5 -53t-62.5 -91h-55q0 60 75.5 129.5t263.5 69.5t247 -64.5t59 -115.5v-891h-58v74q-82 -72 -278 -72t-266 46.5t-70 84.5z" />
    <glyph glyph-name="ae" unicode="&#xe6;" horiz-adv-x="1730" 
d="M331 59q236 0 285 82v369q-481 0 -520 -70q-37 -96 -37 -307q21 -42 105 -58t167 -16zM1085 539q215 0 365 22q-4 217 -100 339t-264 122t-283 -131t-123 -328q190 -24 405 -24zM2 133v119q0 118 43 211q40 84 239 94t212 10h120v303q0 84 -79.5 115t-173.5 31
q-154 0 -216.5 -53t-62.5 -91h-55q0 60 75.5 129.5t263.5 69.5t247 -64.5t59 -115.5v-100q55 133 164.5 210.5t253.5 77.5q190 0 301.5 -147t111.5 -402q-270 -58 -511.5 -49.5t-313.5 25.5q12 -200 127 -326.5t285 -126.5q126 0 216.5 70t118.5 100l41 -39
q-116 -123 -221.5 -154.5t-154.5 -31.5q-143 0 -253 78t-165 209v-285h-58v74q-82 -72 -278 -72t-266 46.5t-70 84.5z" />
    <glyph glyph-name="ccedilla" unicode="&#xe7;" horiz-adv-x="933" 
d="M428 1077h281v-55h-281q-87 0 -190.5 -62t-143 -182.5t-39.5 -239t27 -199.5t80.5 -154t136.5 -102.5t129 -29.5h281v-57h-267l-26 -117h155q40 -12 57 -48.5t6 -102.5q-11 -67 -11 -84l-25 -23l-272 60l4 55l241 -49l13 88q3 40 -15 47h-202l-19 31l37 147
q-139 27 -262 144.5t-123 394.5q0 335 215 469h-2q100 69 215 69z" />
    <glyph glyph-name="egrave" unicode="&#xe8;" horiz-adv-x="1105" 
d="M460 539q215 0 365 22q-4 217 -100 339t-264 122t-283 -131t-123 -328q190 -24 405 -24zM0 538.5q0 234.5 132 387.5t329 153t308.5 -148t111.5 -401q-271 -58 -512.5 -49.5t-313.5 25.5q12 -201 127.5 -327t284.5 -126q126 0 216.5 70t119.5 100l41 -39
q-176 -186 -404 -186q-76 0 -160.5 40t-182 153t-97.5 347.5zM301 1337l27 47l254 -182l-31 -49z" />
    <glyph glyph-name="eacute" unicode="&#xe9;" horiz-adv-x="1105" 
d="M460 539q215 0 365 22q-4 217 -100 339t-264 122t-283 -131t-123 -328q190 -24 405 -24zM0 538.5q0 234.5 132 387.5t329 153t308.5 -148t111.5 -401q-271 -58 -512.5 -49.5t-313.5 25.5q12 -201 127.5 -327t284.5 -126q126 0 216.5 70t119.5 100l41 -39
q-176 -186 -404 -186q-76 0 -160.5 40t-182 153t-97.5 347.5zM301 1202l252 182l29 -47l-250 -182z" />
    <glyph glyph-name="ecircumflex" unicode="&#xea;" horiz-adv-x="1105" 
d="M221 1128l203 248h33l200 -248l-47 -26l-170 203l-170 -207zM460 539q215 0 365 22q-4 217 -100 339t-264 122t-283 -131t-123 -328q190 -24 405 -24zM0 538.5q0 234.5 132 387.5t329 153t308.5 -148t111.5 -401q-271 -58 -512.5 -49.5t-313.5 25.5q12 -201 127.5 -327
t284.5 -126q126 0 216.5 70t119.5 100l41 -39q-176 -186 -404 -186q-76 0 -160.5 40t-182 153t-97.5 347.5z" />
    <glyph glyph-name="edieresis" unicode="&#xeb;" horiz-adv-x="1105" 
d="M460 539q215 0 365 22q-4 217 -100 339t-264 122t-283 -131t-123 -328q190 -24 405 -24zM0 538.5q0 234.5 132 387.5t329 153t308.5 -148t111.5 -401q-271 -58 -512.5 -49.5t-313.5 25.5q12 -201 127.5 -327t284.5 -126q126 0 216.5 70t119.5 100l41 -39
q-176 -186 -404 -186q-76 0 -160.5 40t-182 153t-97.5 347.5zM535 1167v181h57v-181h-57zM317 1167v181h56v-181h-56z" />
    <glyph glyph-name="igrave" unicode="&#xec;" horiz-adv-x="503" 
d="M0 1339l27 47l252 -182l-29 -49zM111 -2v1081h55v-1081h-55z" />
    <glyph glyph-name="iacute" unicode="&#xed;" horiz-adv-x="503" 
d="M0 1204l252 182l27 -47l-248 -182zM111 -2v1081h55v-1081h-55z" />
    <glyph glyph-name="icircumflex" unicode="&#xee;" horiz-adv-x="655" 
d="M0 1135l199 241h30l201 -246l-47 -26l-170 203l-174 -211zM186 -2v1081h56v-1081h-56z" />
    <glyph glyph-name="idieresis" unicode="&#xef;" horiz-adv-x="499" 
d="M219 1169v181h55v-181h-55zM0 1169v181h55v-181h-55zM109 -2v1081h57v-1081h-57z" />
    <glyph glyph-name="eth" unicode="&#xf0;" horiz-adv-x="1157" 
d="M874 545q0 137 -81 299q-55 78 -138.5 124t-180.5 46q-185 0 -301 -127.5t-116 -321.5v-59q0 -196 116 -323.5t293 -127.5t292.5 127t115.5 324v39zM932 565v-59q0 -220 -131 -364t-333 -144t-335 143.5t-133 364.5v59q0 221 133 362.5t334 141.5q113 0 207 -47
q-118 146 -287 281l-201 -103l-24 51l174 90q-74 57 -123 89t-51 34l26 54q2 -2 60.5 -40t144.5 -106l277 144l26 -54l-254 -131q276 -233 396 -450q94 -132 94 -316z" />
    <glyph glyph-name="ntilde" unicode="&#xf1;" horiz-adv-x="960" 
d="M293 1212q-65 0 -135 70l51 29q10 -8 32.5 -25.5t54.5 -17.5t71 35q49 51 99 51t83 -21.5t59 -44.5l-59 -59q0 11 -22 40t-53 29q-30 0 -68 -34q-49 -51 -111 -52h-2zM55 0h-55v1079h55v-61q168 61 316 61t247.5 -81t116.5 -148v-850h-55l-2 842q-98 182 -330 182
q-105 0 -293 -63v-961z" />
    <glyph glyph-name="ograve" unicode="&#xf2;" horiz-adv-x="1167" 
d="M322 1374l38 41l254 -188l-26 -49zM171 900.5q-116 -129.5 -116 -327.5v-59q0 -198 117 -326.5t297 -128.5t298 129.5t118 325.5v59q0 195 -117 326t-299 131t-298 -129.5zM0 514v59q0 224 131.5 369t340.5 145t339.5 -145.5t130.5 -368.5v-59q0 -222 -131.5 -367
t-339 -145t-339.5 145t-132 367z" />
    <glyph glyph-name="oacute" unicode="&#xf3;" horiz-adv-x="1167" 
d="M322 1223l266 196l26 -49l-256 -190zM171 900.5q-116 -129.5 -116 -327.5v-59q0 -198 117 -326.5t297 -128.5t298 129.5t118 325.5v59q0 195 -117 326t-299 131t-298 -129.5zM0 514v59q0 224 131.5 369t340.5 145t339.5 -145.5t130.5 -368.5v-59q0 -222 -131.5 -367
t-339 -145t-339.5 145t-132 367z" />
    <glyph glyph-name="ocircumflex" unicode="&#xf4;" horiz-adv-x="1167" 
d="M471 1339q-157 -194 -180 -221l-49 33l211 256h34l205 -250l-41 -41zM171 900.5q-116 -129.5 -116 -327.5v-59q0 -198 117 -326.5t297 -128.5t298 129.5t118 325.5v59q0 195 -117 326t-299 131t-298 -129.5zM0 514v59q0 224 131.5 369t340.5 145t339.5 -145.5
t130.5 -368.5v-59q0 -222 -131.5 -367t-339 -145t-339.5 145t-132 367z" />
    <glyph glyph-name="otilde" unicode="&#xf5;" horiz-adv-x="1167" 
d="M568 1315q-42 0 -87 -45t-104 -45h-2q-47 0 -86 32t-39 43l31 31q41 -49 87 -49t93 45t103 45t136 -67l-41 -39q-49 49 -91 49zM171 900.5q-116 -129.5 -116 -327.5v-59q0 -198 117 -326.5t297 -128.5t298 129.5t118 325.5v59q0 195 -117 326t-299 131t-298 -129.5z
M0 514v59q0 224 131.5 369t340.5 145t339.5 -145.5t130.5 -368.5v-59q0 -222 -131.5 -367t-339 -145t-339.5 145t-132 367z" />
    <glyph glyph-name="odieresis" unicode="&#xf6;" horiz-adv-x="1167" 
d="M557 1194v184h55v-184h-55zM326 1194v184h57v-184h-57zM171 900.5q-116 -129.5 -116 -327.5v-59q0 -198 117 -326.5t297 -128.5t298 129.5t118 325.5v59q0 195 -117 326t-299 131t-298 -129.5zM0 514v59q0 224 131.5 369t340.5 145t339.5 -145.5t130.5 -368.5v-59
q0 -222 -131.5 -367t-339 -145t-339.5 145t-132 367z" />
    <glyph glyph-name="divide" unicode="&#xf7;" horiz-adv-x="1417" 
d="M0 518v57h1192v-57h-1192zM584 2v301h55v-301h-55zM584 776v299h55v-299h-55z" />
    <glyph glyph-name="oslash" unicode="&#xf8;" horiz-adv-x="1331" 
d="M872 899q-117 125 -293 125t-293.5 -127t-117.5 -328v-59q0 -149 68 -262zM993 510v59q0 166 -86 287l-639 -653q116 -148 303 -148t304.5 127.5t117.5 327.5zM1051 569v-59q0 -223 -132.5 -366.5t-344.5 -143.5t-347 160l-186 -191l-41 39l195 199q-84 125 -84 303v59
q0 225 133 367.5t337 142.5t330 -137l156 158l39 -41l-158 -162q103 -139 103 -328z" />
    <glyph glyph-name="ugrave" unicode="&#xf9;" horiz-adv-x="960" 
d="M221 1346l31 49l256 -189l-29 -49zM55 240q91 -185 339 -185q114 0 286 64v960h55v-1079h-55v59q-164 -59 -286 -59t-190 32q-101 47 -148 104t-56 93v850h55v-839z" />
    <glyph glyph-name="uacute" unicode="&#xfa;" horiz-adv-x="960" 
d="M283 1206l252 185l38 -41l-258 -191zM394 0q-122 0 -190 32q-101 47 -148 104t-56 93v850h55v-839q10 -23 45 -69t111 -81q77 -35 187 -35t282 64v960h55v-1079h-55v59q-164 -59 -286 -59z" />
    <glyph glyph-name="ucircumflex" unicode="&#xfb;" horiz-adv-x="960" 
d="M154 1130l206 252h33l203 -245l-41 -39l-178 217l-174 -215zM394 0q-122 0 -190 32q-101 47 -148 104t-56 93v850h55v-839q10 -23 45 -69t111 -81q77 -35 187 -35t282 64v960h55v-1079h-55v59q-164 -59 -286 -59z" />
    <glyph glyph-name="udieresis" unicode="&#xfc;" horiz-adv-x="960" 
d="M227 1174v182h58v-182h-58zM453 1174v182h57v-182h-57zM394 0q-122 0 -190 32q-101 47 -148 104t-56 93v850h55v-839q10 -23 45 -69t111 -81q77 -35 187 -35t282 64v960h55v-1079h-55v59q-164 -59 -286 -59z" />
    <glyph glyph-name="yacute" unicode="&#xfd;" horiz-adv-x="1150" 
d="M297 1180l252 186l29 -49l-250 -182zM76 -465v55q160 0 346 420l-422 1053l51 24l404 -1003q315 751 419 1003l52 -24q-166 -393 -281 -681t-207 -476.5t-175 -279.5t-187 -91z" />
    <glyph glyph-name="thorn" unicode="&#xfe;" horiz-adv-x="1044" 
d="M301 985q-102 0 -246 -35v-821q35 -10 86 -10q322 0 486 143v-2q137 123 137 336q0 98 -35 177t-94 128q-113 84 -334 84zM319 1042q224 0 351 -98q150 -110 150 -350t-154 -375q-100 -86 -241 -121t-238 -35t-132 11v-514h-55v2017h55v-561q169 26 264 26z" />
    <glyph glyph-name="ydieresis" unicode="&#xff;" horiz-adv-x="1150" 
d="M299 1157v176h57v-176h-57zM518 1157v176h57v-176h-57zM76 -465v55q160 0 346 420l-422 1053l51 24l404 -1003q315 751 419 1003l52 -24q-166 -393 -281 -681t-207 -476.5t-176 -279.5t-186 -91z" />
    <glyph glyph-name="dotlessi" unicode="&#x131;" horiz-adv-x="282" 
d="M0 -2v1081h57v-1081h-57z" />
    <glyph glyph-name="Lslash" unicode="&#x141;" horiz-adv-x="1275" 
d="M225 1501h56v-770l524 172l4 -59l-528 -174v-615h770v-57h-826v653l-205 -65l-20 53l225 74v788z" />
    <glyph glyph-name="lslash" unicode="&#x142;" horiz-adv-x="817" 
d="M268 -2v704l-241 -135l-27 51l268 150v717h56v-686l241 137l27 -49l-268 -152v-737h-56z" />
    <glyph glyph-name="OE" unicode="&#x152;" horiz-adv-x="2347" 
d="M55 791v-82q0 -283 168.5 -466.5t421.5 -183.5t418.5 175.5t173.5 445.5v111q0 284 -168.5 467.5t-422.5 183.5t-422.5 -183.5t-168.5 -467.5zM1237 0v401q-74 -182 -228.5 -289.5t-361.5 -107.5q-283 0 -465 199t-182 506v82q0 308 181.5 507t465.5 199
q207 0 361.5 -107.5t228.5 -291.5v403h723v-55h-666v-694h582v-58h-582v-639h828v-55h-885z" />
    <glyph glyph-name="oe" unicode="&#x153;" horiz-adv-x="1986" 
d="M1341 539q215 0 365 22q-4 217 -100 339t-264 122t-283 -131t-123 -328q190 -24 405 -24zM55 567v-57q0 -199 117.5 -326t293.5 -127t293.5 127t117.5 326v57q0 197 -117.5 324t-293.5 127t-293.5 -127t-117.5 -324zM1332 -2q-140 0 -255.5 91.5t-167.5 252.5
q-45 -154 -162.5 -247t-279.5 -93q-202 0 -334.5 143.5t-132.5 364.5v57q0 223 133 364.5t334 141.5q162 0 279.5 -93t162.5 -247q47 158 163 252t276 94q190 0 301.5 -147t111.5 -402q-270 -58 -511.5 -49.5t-313.5 25.5q12 -200 127 -326.5t285 -126.5q126 0 216.5 70
t118.5 100l41 -39q-116 -123 -222 -154.5t-170 -31.5z" />
    <glyph glyph-name="Scaron" unicode="&#x160;" horiz-adv-x="1155" 
d="M0 1069q0 596 930 369v-56q-434 102 -654.5 28.5t-220.5 -341.5q0 -117 74 -195q59 -56 134 -72t104 -17l28 -1q301 0 439 -143q57 -57 73.5 -115t16.5 -90q0 -308 -246 -397t-678 22v56q607 -158 737.5 11t130.5 308q-6 97 -73 166q-123 123 -400 123q-103 0 -182.5 34
t-122.5 77q-90 90 -90 233zM145 1907l41 39l277 -285q66 70 138.5 143.5t133.5 141.5l41 -39l-299 -314h-28z" />
    <glyph glyph-name="scaron" unicode="&#x161;" horiz-adv-x="901" 
d="M291 514q-144 0 -223 82q-68 63 -68 175q0 221 182.5 283.5t493.5 -34.5l-41 -55q-249 90 -414.5 38.5t-165.5 -237.5q0 -78 49 -131q73 -67 185 -64q217 0 319 -104q66 -66 66 -152q0 -233 -171 -290.5t-503 34.5l41 56q419 -136 498 -15t79 200t-49 130q-84 84 -278 84
zM328 1200q74 74 215 221l28 -28l-231 -244h-23l-233 242l31 30z" />
    <glyph glyph-name="Ydieresis" unicode="&#x178;" horiz-adv-x="1404" 
d="M672 1622v178h55v-178h-55zM453 1622v178h57v-178h-57zM618 0h-55l2 700l-565 768l49 29l543 -735l541 735l47 -29l-562 -761v-707z" />
    <glyph glyph-name="Zcaron" unicode="&#x17d;" horiz-adv-x="1394" 
d="M584 1642q42 45 276 287l39 -39l-299 -313h-29l-301 311l41 39zM10 1444v55h1143l16 -35l-1081 -1409h1073v-55h-1143l-18 37l1085 1407h-1075z" />
    <glyph glyph-name="zcaron" unicode="&#x17e;" horiz-adv-x="1071" 
d="M184 1409l31 29l207 -215q51 53 105.5 107t101.5 108l37 -23l-232 -244h-20zM10 1022v55h819l17 -33l-758 -987h750v-57h-820l-18 35l760 987h-750z" />
    <glyph glyph-name="florin" unicode="&#x192;" horiz-adv-x="808" 
d="M358 216q0 -81 -53 -136h2q-63 -76 -229 -76v55q137 0 188 58q20 20 28 56q9 37 7 54v881h-301v57h301v256q0 48 41 84q47 35 119 35t123 -6l-4 -59l-101 12q-78 -1 -99 -21t-22 -45v-256h224v-57h-224v-892z" />
    <glyph glyph-name="circumflex" unicode="&#x2c6;" horiz-adv-x="849" 
d="M311 1427q-165 -175 -272 -282l-39 39l297 309h29l299 -309l-41 -39z" />
    <glyph glyph-name="caron" unicode="&#x2c7;" horiz-adv-x="849" 
d="M311 1241l273 285l41 -41l-297 -309h-27l-301 309l39 39z" />
    <glyph glyph-name="breve" unicode="&#x2d8;" horiz-adv-x="770" 
d="M274 1198q-70 0 -128 29.5t-95 103t-47 126.5l-4 22l51 2q0 -4 8.5 -40t51 -112t148.5 -76t162.5 81t74.5 147l49 -4l-14 -44q-35 -117 -111 -176t-146 -59z" />
    <glyph glyph-name="dotaccent" unicode="&#x2d9;" horiz-adv-x="280" 
d="M0 1245v238h55v-238h-55z" />
    <glyph glyph-name="ring" unicode="&#x2da;" horiz-adv-x="702" 
d="M237.5 1473q-75.5 0 -129 -53.5t-53.5 -129.5t53.5 -129t129 -53t130 53t54.5 129t-54.5 129.5t-130 53.5zM237.5 1053q-49.5 0 -92.5 19.5t-74.5 51t-51 74.5t-19.5 92t19.5 93t51 76t74.5 50.5t92.5 18.5t93.5 -18.5t75.5 -50.5t51 -76t19.5 -93t-19.5 -92t-51 -74.5
t-75.5 -51t-93.5 -19.5z" />
    <glyph glyph-name="ogonek" unicode="&#x2db;" horiz-adv-x="688" 
d="M0 -182q0 46 19 83q32 60 115 92t116 32l2 -56l-24 -4q-57 -10 -133.5 -58.5t-21.5 -157.5t157 -82.5t176 72.5l28 17l29 -53q-18 -18 -103 -57t-142 -39t-79 10l2 -2q-78 21 -114 102q-27 55 -27 101z" />
    <glyph glyph-name="tilde" unicode="&#x2dc;" horiz-adv-x="901" 
d="M188 1262q-81 0 -172 75l-16 15l41 39q85 -74 151 -74q66 1 134 69t146 68q77 0 125 -30.5t63 -45.5l16 -14l-39 -41q-82 71 -152 76q-67 0 -135 -69t-160 -68h-2z" />
    <glyph glyph-name="hungarumlaut" unicode="&#x2dd;" horiz-adv-x="745" 
d="M264 1352l217 225l39 -39l-217 -225zM0 1352l217 225l39 -39l-217 -225z" />
    <glyph glyph-name="endash" unicode="&#x2013;" horiz-adv-x="1054" 
d="M0 666v55h829v-55h-829z" />
    <glyph glyph-name="emdash" unicode="&#x2014;" horiz-adv-x="1384" 
d="M0 666v55h1159v-55h-1159z" />
    <glyph glyph-name="quoteleft" unicode="&#x2018;" horiz-adv-x="385" 
d="M0 1509l59 4l101 -311l-60 -4z" />
    <glyph glyph-name="quoteright" unicode="&#x2019;" horiz-adv-x="385" 
d="M0 1202l100 311l60 -4l-103 -315z" />
    <glyph glyph-name="quotesinglbase" unicode="&#x201a;" horiz-adv-x="305" 
d="M0 -121l25 311l55 -2l-25 -313z" />
    <glyph glyph-name="quotedblleft" unicode="&#x201c;" horiz-adv-x="638" 
d="M252 1509l59 4l103 -311l-60 -4zM0 1509l59 4l101 -311l-60 -4z" />
    <glyph glyph-name="quotedblright" unicode="&#x201d;" horiz-adv-x="638" 
d="M0 1202l100 311l60 -4l-103 -315zM252 1202l102 311l60 -4l-105 -315z" />
    <glyph glyph-name="quotedblbase" unicode="&#x201e;" horiz-adv-x="526" 
d="M219 -121l27 311l55 -2l-27 -313zM0 -121l25 311l55 -2l-25 -313z" />
    <glyph glyph-name="dagger" unicode="&#x2020;" horiz-adv-x="1310" 
d="M516 -82v1075l-512 -41l-4 56l516 41v452h55v-448l514 43v-58l-514 -41v-1079h-55z" />
    <glyph glyph-name="daggerdbl" unicode="&#x2021;" horiz-adv-x="1310" 
d="M516 -82v498l-512 -39l-4 55l516 41v520l-512 -41l-4 56l516 41v452h55v-448l514 43v-58l-514 -41v-520l514 41v-57l-514 -41v-502h-55z" />
    <glyph glyph-name="bullet" unicode="&#x2022;" horiz-adv-x="346" 
d="M121 695q0 -26 -16.5 -45t-44.5 -19t-44 19.5t-16 45.5t16 42t44 16t44.5 -16.5t16.5 -42.5z" />
    <glyph glyph-name="ellipsis" unicode="&#x2026;" horiz-adv-x="823" 
d="M541 -2v162h57v-162h-57zM270 -2v162h58v-162h-58zM0 -2v162h55v-162h-55z" />
    <glyph glyph-name="perthousand" unicode="&#x2030;" horiz-adv-x="2424" 
d="M1894.5 610q-53.5 0 -99.5 -25.5t-80 -66.5t-52 -91t-18 -99t18 -99.5t52 -90.5t80 -65.5t99.5 -25.5t99.5 25.5t79.5 65.5t52 90.5t18.5 99.5t-18.5 99t-52 91t-79.5 66.5t-99.5 25.5zM1894.5 -8q-65.5 0 -121 30.5t-96.5 79t-64.5 107.5t-23.5 118.5t23.5 120
t64.5 108.5t96.5 79t121 31t122 -31t97 -79t63.5 -108.5t23 -120t-23 -118.5t-63.5 -107.5t-97 -79t-122 -30.5zM1126.5 610q-53.5 0 -99.5 -25.5t-80 -66.5t-52 -91t-18 -99t18 -99.5t52 -90.5t80 -65.5t99.5 -25.5t98.5 25.5t78.5 65.5t53 90.5t19.5 99.5t-19.5 99t-53 91
t-78.5 66.5t-98.5 25.5zM1126.5 -8q-65.5 0 -122 30.5t-97.5 79t-64.5 107.5t-23.5 118.5t23.5 120t64.5 108.5t97.5 79t122 31t121 -31t96 -79t64.5 -108.5t24 -120t-24 -118.5t-64.5 -107.5t-96 -79t-121 -30.5zM55 1138q0 -104 74.5 -194t180.5 -90t179.5 90t73.5 194
t-74 194.5t-179 90.5q-106 0 -180.5 -90.5t-74.5 -194.5zM91.5 906.5q-91.5 107.5 -91.5 233.5q0 127 92 234t219 107q126 0 216.5 -107.5t90.5 -233.5q0 -125 -90 -233t-217 -108q-128 0 -219.5 107.5zM315 25l711 1468l51 -25l-712 -1468z" />
    <glyph glyph-name="guilsinglleft" unicode="&#x2039;" horiz-adv-x="706" 
d="M70 561q172 -141 405 -336l-29 -49l-446 367v32l442 363l39 -43z" />
    <glyph glyph-name="guilsinglright" unicode="&#x203a;" horiz-adv-x="706" 
d="M0 221l412 340l-408 330l29 53l448 -369v-32l-442 -361z" />
    <glyph glyph-name="fraction" unicode="&#x2044;" horiz-adv-x="1294" 
d="M0 20l1020 1471l49 -27l-1022 -1472z" />
    <glyph glyph-name="Euro" unicode="&#x20ac;" horiz-adv-x="1263" 
d="M0 586v57h246q-2 25 -2 31v82q0 75 4 104h-248v58h254q33 281 197 423q96 86 191 100.5t129 12.5l267 -24l-2 -58l-235 25l-30 2q-70 5 -150 -26.5t-132 -76.5q-141 -123 -178 -378h488v-58h-494q-4 -29 -4 -36v-82q0 -74 2 -99h496v-57h-490q31 -268 180 -396
q120 -100 157 -100h155l235 25l2 -56l-237 -24l-33 -2q-115 0 -194.5 39t-122.5 75q-166 143 -199 439h-252z" />
    <glyph glyph-name="trademark" unicode="&#x2122;" horiz-adv-x="1509" 
d="M254 750v692h-254v55h565v-55h-256v-692h-55zM1284 750h-55v647q-178 -204 -268 -303h-29l-258 292v-636h-58v729l41 18l293 -336q133 148 293 330l41 -4v-737z" />
    <glyph glyph-name="minus" unicode="&#x2212;" horiz-adv-x="884" 
d="M0 526v56h659v-56h-659z" />
    <glyph glyph-name="NULL" horiz-adv-x="0" 
 />
    </font>
</defs>
</svg>
