<?xml version="1.0" encoding="utf-8"?>
<svg version="1.1" class="svg" xmlns="http://www.w3.org/2000/svg" xmlns:xlink="http://www.w3.org/1999/xlink" x="0px" y="0px"
	 viewBox="0 0 300 300" style="enable-background:new 0 0 300 300;" xml:space="preserve">
<g>
	<path d="M300,150.3c0,69.9-47.9,129-112.5,145.7v-39.3c0-12.2-3.1-29.5-15.7-39.3c40.3-6.2,71.9-29.8,71.9-67.1
		c0-15.3-6.3-30.7-17.4-43.1c3.2-14.2,5-31.7-1.3-44.5c-16,1.3-31.6,9.4-43.4,16.6c-9.8-2.3-20.2-4.1-31.6-4.1s-21.8,1.8-31.6,4.1
		C106.6,72.1,91,64,75,62.7c-6.3,12.8-4.8,30.2-1.3,44.5c-11.1,12.5-17.4,27.9-17.4,43.1c0,37.3,31.6,60.9,71.9,67.1
		c-6,4.5-9.8,10.9-12.2,17.2c-31.3,0.6-56.7-24.4-57-24.4c-1.5-1.5-3.5-1.8-4.8-0.7c-1.8,1-2.5,3.1-2.1,4.8
		c0.6,1.5,13.2,37.3,60.4,51.5V296C47.9,279.3,0,220.1,0,150.3C0,67.5,66.9,0,150,0C232.6,0,300,67.5,300,150.3z"/>
</g>
</svg>
