<?xml version="1.0" encoding="utf-8"?>
<!-- Generator: Adobe Illustrator 19.1.0, SVG Export Plug-In . SVG Version: 6.00 Build 0)  -->
<svg version="1.1" id="Layer_1" xmlns="http://www.w3.org/2000/svg" xmlns:xlink="http://www.w3.org/1999/xlink" x="0px" y="0px"
	 viewBox="0 0 300 300" style="enable-background:new 0 0 300 300;" xml:space="preserve">
<g>
	<path d="M300,150c0,83.1-67.4,150-150,150C66.9,300,0,233.1,0,150C0,67.4,66.9,0,150,0C232.6,0,300,67.4,300,150z M243.8,93
		c0-6.6-5.3-11.7-11.9-11.7H68.1c-6.6,0-11.9,5.1-11.9,11.7l93.7,70.2L243.8,93z M243.8,117.3L150,187.5l-93.7-70.2V207
		c0,6.6,5.3,11.7,11.9,11.7h163.8c6.6,0,11.9-5.1,11.9-11.7V117.3z"/>
</g>
</svg>
