<?xml version="1.0" encoding="utf-8"?>
<svg version="1.1" class="svg" xmlns="http://www.w3.org/2000/svg" xmlns:xlink="http://www.w3.org/1999/xlink" x="0px" y="0px"
	 viewBox="0 0 300 300" style="enable-background:new 0 0 300 300;" xml:space="preserve">
<g>
	<path d="M300,150c0,83.1-66.9,150-150,150C66.9,300,0,233.1,0,150S66.9,0,150,0C233.1,0,300,66.9,300,150z M262.5,95.1
		c-7.6,3.2-16,5.6-24.6,6.7c8.9-5.3,15.2-13.6,18.3-23.7c-8.3,5-17,8.4-26.7,10.4c-7.6-8.2-18.8-13.5-30.9-13.5
		c-23.6,0-42.3,19-42.3,42.8c0,3.1,0.3,6.6,1,9.7c-35.4-1.8-67.1-18.8-88.2-44.8c-3.5,6.6-5.6,13.9-5.6,21.5
		c0,14.9,7.3,27.8,18.8,35.4c-7,0-13.6-2.1-19.2-5.3v0.4c0,20.8,14.6,37.8,34.1,42c-3.5,1-7.3,1.3-11.1,1.3c-2.8,0-5.6-0.3-8.1-0.7
		c5.3,17,21.2,28.6,39.7,28.9c-14.6,11.4-32.7,19.5-52.9,19.5c-3.4,0-6.9-0.4-10-0.7c18.8,12.2,41.3,18.8,65.2,18.8
		c78.5,0,121.1-64.9,121.1-121.1c0-1.8,0-3.8,0-5.6C249.6,111.2,256.6,103.4,262.5,95.1z"/>
</g>
</svg>
